<svg width="185" height="157" viewBox="0 0 185 157" fill="none" xmlns="http://www.w3.org/2000/svg">
<g clip-path="url(#clip0_23_3445)">
<path d="M119.842 155.228L85.3838 92.417C85.374 92.2633 85.327 92.1144 85.2467 91.9835C85.1665 91.8525 85.0556 91.7436 84.9239 91.6663C84.7727 91.5788 84.6001 91.5366 84.4261 91.5447C84.4205 91.5443 84.4149 91.5446 84.4093 91.5443C84.4037 91.5446 84.398 91.5443 84.3925 91.5447C84.1568 91.5336 83.9259 91.615 83.7482 91.772C83.5705 91.9289 83.4597 92.1493 83.439 92.387L46.9185 155.228C46.8576 155.334 46.8181 155.452 46.8022 155.574C46.7862 155.696 46.7942 155.82 46.8257 155.938C46.8571 156.057 46.9114 156.169 46.9855 156.266C47.0596 156.364 47.1519 156.446 47.2573 156.507C47.3626 156.569 47.479 156.609 47.5996 156.625C47.7202 156.641 47.8428 156.633 47.9603 156.601C48.0778 156.569 48.188 156.514 48.2845 156.439C48.381 156.364 48.462 156.271 48.5227 156.164L84.3847 94.4566L118.238 156.164C118.298 156.271 118.379 156.364 118.476 156.439C118.572 156.514 118.682 156.569 118.8 156.601C118.918 156.633 119.04 156.641 119.161 156.625C119.281 156.609 119.398 156.569 119.503 156.507C119.608 156.446 119.701 156.364 119.775 156.266C119.849 156.169 119.903 156.057 119.935 155.938C119.966 155.82 119.974 155.696 119.958 155.574C119.942 155.452 119.903 155.334 119.842 155.228Z" fill="#3F3D56"/>
<path d="M78.6995 144.451L82.5943 143.548L81.001 127.929L75.2527 129.263L78.6995 144.451Z" fill="#FFB6B6"/>
<path d="M81.7108 136.906L76.168 138.192L74.3958 134.69L74.2954 134.566C73.5092 133.59 73.0729 132.374 73.0573 131.116L68.4504 118.795L68.0737 118.614C67.7823 118.474 67.5238 118.273 67.3155 118.024C67.1072 117.775 66.9539 117.483 66.8657 117.169C66.7776 116.856 66.7568 116.526 66.8045 116.204C66.8523 115.881 66.9676 115.572 67.1427 115.298L66.655 113.994L52.893 114.02L52.8793 114.016L35.9797 109.223L37.7542 98.5287L42.508 101.552C44.0744 101.449 70.908 99.7835 73.387 105.863C75.5945 111.277 78.7755 120.527 81.0554 127.333C81.1691 127.639 81.3104 127.933 81.4775 128.212C81.8322 128.765 82.0404 129.4 82.082 130.057C82.1089 130.343 82.1628 130.626 82.2431 130.901C83.1906 133.765 81.747 136.831 81.7324 136.861L81.7108 136.906Z" fill="#2F2E41"/>
<path d="M77.3835 143.145L78.6499 142.851L83.1326 139.672L86.2435 141.09L86.2439 141.09C87.7414 140.743 89.3139 141.011 90.6157 141.836C91.9175 142.661 92.8418 143.975 93.1855 145.489L93.2275 145.674L78.7212 149.039L77.3835 143.145Z" fill="#2F2E41"/>
<path d="M19.877 143.496C20.273 139.138 22.7978 134.775 26.8472 133.23C25.3744 137.75 25.5305 142.651 27.2877 147.065C27.9715 148.766 28.9072 150.585 28.3705 152.338C28.0366 153.429 27.162 154.283 26.1716 154.832C25.181 155.381 24.0714 155.663 22.9755 155.94L22.7641 156.129C20.8853 152.187 19.481 147.854 19.877 143.496Z" fill="#F0F0F0"/>
<path d="M26.8905 133.311C24.592 136.089 23.2178 139.529 22.9632 143.142C22.8947 143.919 22.9478 144.702 23.1204 145.462C23.3123 146.197 23.6953 146.866 24.2297 147.401C24.718 147.91 25.2758 148.373 25.6333 148.993C25.8117 149.313 25.9211 149.667 25.9545 150.033C25.9878 150.399 25.9443 150.767 25.8268 151.115C25.5562 151.989 24.9913 152.712 24.4145 153.4C23.7741 154.164 23.097 154.947 22.846 155.94C22.8156 156.061 22.6327 156.006 22.6631 155.886C23.0997 154.158 24.7128 153.132 25.4478 151.564C25.7908 150.833 25.9178 149.992 25.5507 149.244C25.2297 148.589 24.6549 148.111 24.156 147.601C23.6272 147.087 23.2308 146.45 23.0015 145.745C22.7912 144.997 22.7084 144.217 22.7567 143.44C22.8378 141.69 23.1907 139.963 23.8025 138.323C24.4904 136.447 25.4906 134.705 26.7597 133.17C26.8383 133.075 26.9686 133.216 26.8905 133.311L26.8905 133.311Z" fill="white"/>
<path d="M22.9772 141.974C22.3834 141.848 21.8531 141.514 21.481 141.029C21.1088 140.545 20.919 139.943 20.9456 139.33C20.9469 139.305 20.9577 139.281 20.9758 139.264C20.9939 139.247 21.0179 139.238 21.0426 139.239C21.0673 139.239 21.0909 139.249 21.1084 139.267C21.1259 139.284 21.1359 139.308 21.1363 139.333C21.1106 139.904 21.2874 140.465 21.6349 140.915C21.9824 141.365 22.4776 141.675 23.0312 141.789C23.1515 141.814 23.0968 141.998 22.9772 141.974H22.9772Z" fill="white"/>
<path d="M23.9483 147.176C24.992 146.499 25.745 145.449 26.0571 144.236C26.088 144.116 26.2709 144.171 26.2401 144.291C25.913 145.553 25.1271 146.643 24.0395 147.345C23.9358 147.412 23.8451 147.243 23.9483 147.176H23.9483Z" fill="white"/>
<path d="M24.6729 136.624C24.8927 136.721 25.1328 136.761 25.3717 136.741C25.6106 136.721 25.8409 136.642 26.0418 136.509C26.1446 136.441 26.2352 136.611 26.133 136.679C25.9104 136.824 25.656 136.912 25.392 136.934C25.1281 136.957 24.8627 136.914 24.619 136.809C24.5952 136.801 24.5753 136.785 24.5633 136.762C24.5513 136.74 24.5481 136.714 24.5545 136.689C24.5617 136.665 24.5782 136.644 24.6004 136.632C24.6226 136.62 24.6487 136.617 24.6729 136.624H24.6729Z" fill="white"/>
<path d="M39.5734 140.577C39.5104 140.622 39.4474 140.666 39.3844 140.712C38.5403 141.313 37.746 141.983 37.0092 142.714C36.9513 142.77 36.8935 142.827 36.8374 142.884C35.0808 144.665 33.6666 146.76 32.6666 149.063C32.2696 149.98 31.942 150.926 31.6869 151.893C31.3346 153.229 31.0578 154.705 30.3117 155.812C30.2351 155.929 30.1515 156.04 30.0613 156.146L23.0081 156.375C22.9919 156.368 22.9755 156.362 22.9592 156.354L22.678 156.376C22.6877 156.325 22.6988 156.273 22.7086 156.222C22.7141 156.193 22.7211 156.163 22.7267 156.134C22.7308 156.114 22.7351 156.094 22.7377 156.076C22.7391 156.07 22.7406 156.063 22.742 156.058C22.7446 156.04 22.749 156.024 22.7517 156.007C22.8132 155.714 22.8769 155.42 22.9428 155.127C22.9427 155.125 22.9427 155.125 22.9442 155.123C23.4247 152.881 24.1667 150.704 25.1545 148.638C25.1848 148.577 25.215 148.514 25.2485 148.453C25.7072 147.537 26.2392 146.662 26.839 145.834C27.1689 145.382 27.5212 144.947 27.8946 144.531C28.8615 143.458 29.9892 142.545 31.2366 141.827C33.7234 140.394 36.6357 139.782 39.3654 140.519C39.4352 140.538 39.5035 140.557 39.5734 140.577Z" fill="#F0F0F0"/>
<path d="M39.5605 140.668C36.0707 141.487 32.925 143.398 30.5701 146.127C30.0528 146.706 29.629 147.363 29.3142 148.075C29.0297 148.779 28.9368 149.547 29.045 150.299C29.1321 151.002 29.3016 151.711 29.218 152.424C29.1699 152.788 29.0461 153.138 28.8549 153.45C28.6637 153.762 28.4094 154.03 28.1085 154.236C27.3722 154.769 26.4904 155.003 25.6201 155.201C24.6539 155.421 23.6469 155.635 22.855 156.275C22.759 156.352 22.6456 156.197 22.7414 156.12C24.1191 155.006 26.0181 155.169 27.5385 154.364C28.2479 153.989 28.8498 153.395 29.0024 152.574C29.1358 151.856 28.9616 151.125 28.8674 150.413C28.7511 149.681 28.814 148.931 29.0505 148.229C29.3284 147.503 29.7265 146.831 30.2276 146.24C31.335 144.891 32.6451 143.727 34.1101 142.79C35.7763 141.712 37.6126 140.929 39.5398 140.476C39.659 140.448 39.679 140.64 39.5605 140.668V140.668Z" fill="white"/>
<path d="M31.2772 145.203C30.8778 144.742 30.6538 144.152 30.645 143.538C30.6363 142.925 30.8434 142.329 31.2295 141.856C31.3079 141.76 31.4583 141.879 31.3798 141.974C31.0195 142.414 30.8266 142.97 30.8359 143.541C30.8452 144.112 31.0561 144.661 31.4305 145.088C31.5117 145.181 31.358 145.296 31.2772 145.203V145.203Z" fill="white"/>
<path d="M28.9544 149.948C30.1908 150.043 31.4172 149.663 32.389 148.884C32.4852 148.807 32.5987 148.962 32.5026 149.039C31.4899 149.848 30.2128 150.24 28.9263 150.139C28.8037 150.129 28.8324 149.938 28.9544 149.948V149.948Z" fill="white"/>
<path d="M35.8168 141.964C35.9345 142.175 36.1023 142.353 36.305 142.483C36.5077 142.612 36.739 142.689 36.9782 142.705C37.1009 142.714 37.0721 142.904 36.9502 142.896C36.686 142.877 36.4306 142.792 36.2063 142.649C35.982 142.507 35.7957 142.311 35.6635 142.079C35.6493 142.058 35.6434 142.032 35.6471 142.007C35.6507 141.982 35.6637 141.96 35.6834 141.944C35.7037 141.929 35.7292 141.922 35.7542 141.926C35.7791 141.93 35.8017 141.944 35.8168 141.964H35.8168Z" fill="white"/>
<path d="M135.274 143.496C134.878 139.138 132.353 134.775 128.304 133.23C129.776 137.75 129.62 142.651 127.863 147.065C127.179 148.766 126.244 150.585 126.78 152.338C127.114 153.429 127.989 154.283 128.979 154.832C129.97 155.381 131.08 155.663 132.175 155.94L132.387 156.129C134.266 152.187 135.67 147.854 135.274 143.496Z" fill="#F0F0F0"/>
<path d="M128.261 133.311C130.559 136.089 131.933 139.529 132.188 143.142C132.256 143.919 132.203 144.702 132.031 145.462C131.839 146.197 131.456 146.866 130.921 147.401C130.433 147.91 129.875 148.373 129.518 148.993C129.339 149.313 129.23 149.667 129.197 150.033C129.163 150.399 129.207 150.767 129.324 151.115C129.595 151.989 130.16 152.712 130.737 153.4C131.377 154.164 132.054 154.947 132.305 155.94C132.335 156.061 132.518 156.006 132.488 155.886C132.051 154.158 130.438 153.132 129.703 151.564C129.36 150.833 129.233 149.992 129.6 149.244C129.921 148.589 130.496 148.111 130.995 147.601C131.524 147.087 131.92 146.45 132.15 145.745C132.36 144.997 132.443 144.217 132.394 143.44C132.313 141.69 131.96 139.963 131.349 138.323C130.661 136.447 129.661 134.705 128.391 133.17C128.313 133.075 128.183 133.216 128.261 133.311L128.261 133.311Z" fill="white"/>
<path d="M132.174 141.974C132.767 141.848 133.298 141.514 133.67 141.029C134.042 140.545 134.232 139.943 134.205 139.33C134.204 139.305 134.193 139.281 134.175 139.264C134.157 139.247 134.133 139.238 134.108 139.239C134.084 139.239 134.06 139.249 134.042 139.267C134.025 139.285 134.015 139.308 134.015 139.333C134.04 139.904 133.863 140.465 133.516 140.915C133.168 141.365 132.673 141.675 132.12 141.789C131.999 141.814 132.054 141.998 132.174 141.974V141.974Z" fill="white"/>
<path d="M131.203 147.176C130.159 146.499 129.406 145.449 129.094 144.236C129.063 144.116 128.88 144.171 128.911 144.291C129.238 145.553 130.024 146.643 131.111 147.345C131.215 147.412 131.306 147.243 131.203 147.176H131.203Z" fill="white"/>
<path d="M130.478 136.624C130.258 136.721 130.018 136.761 129.779 136.741C129.54 136.721 129.31 136.642 129.109 136.509C129.006 136.441 128.916 136.611 129.018 136.679C129.24 136.824 129.495 136.912 129.759 136.934C130.023 136.957 130.288 136.914 130.532 136.809C130.556 136.801 130.575 136.785 130.587 136.762C130.599 136.74 130.603 136.714 130.596 136.689C130.589 136.665 130.572 136.644 130.55 136.632C130.528 136.62 130.502 136.617 130.478 136.624H130.478Z" fill="white"/>
<path d="M115.577 140.577C115.64 140.622 115.703 140.666 115.766 140.712C116.611 141.313 117.405 141.983 118.142 142.714C118.199 142.77 118.257 142.827 118.313 142.884C120.07 144.665 121.484 146.76 122.484 149.063C122.881 149.98 123.209 150.926 123.464 151.893C123.816 153.229 124.093 154.705 124.839 155.812C124.916 155.929 124.999 156.04 125.09 156.146L132.143 156.375C132.159 156.368 132.175 156.362 132.192 156.354L132.473 156.376C132.463 156.325 132.452 156.273 132.442 156.222C132.437 156.193 132.43 156.163 132.424 156.134C132.42 156.114 132.416 156.094 132.413 156.076C132.412 156.07 132.41 156.063 132.409 156.058C132.406 156.04 132.402 156.024 132.399 156.007C132.338 155.714 132.274 155.42 132.208 155.127C132.208 155.125 132.208 155.125 132.207 155.123C131.726 152.881 130.984 150.704 129.996 148.638C129.966 148.577 129.936 148.514 129.902 148.453C129.444 147.537 128.912 146.662 128.312 145.834C127.982 145.382 127.63 144.947 127.256 144.531C126.289 143.458 125.162 142.545 123.914 141.827C121.427 140.394 118.515 139.782 115.785 140.519C115.716 140.538 115.647 140.557 115.577 140.577Z" fill="#F0F0F0"/>
<path d="M115.59 140.668C119.08 141.487 122.226 143.398 124.581 146.127C125.098 146.706 125.522 147.363 125.837 148.075C126.121 148.779 126.214 149.547 126.106 150.299C126.019 151.002 125.849 151.711 125.933 152.424C125.981 152.788 126.105 153.138 126.296 153.45C126.487 153.762 126.742 154.03 127.042 154.236C127.779 154.769 128.661 155.003 129.531 155.201C130.497 155.421 131.504 155.635 132.296 156.275C132.392 156.352 132.505 156.197 132.41 156.12C131.032 155.006 129.133 155.169 127.612 154.364C126.903 153.989 126.301 153.395 126.149 152.574C126.015 151.856 126.189 151.125 126.284 150.413C126.4 149.681 126.337 148.931 126.1 148.229C125.823 147.503 125.424 146.831 124.923 146.24C123.816 144.891 122.506 143.727 121.041 142.79C119.375 141.712 117.538 140.929 115.611 140.476C115.492 140.448 115.472 140.64 115.59 140.668V140.668Z" fill="white"/>
<path d="M123.874 145.203C124.273 144.742 124.497 144.152 124.506 143.538C124.515 142.925 124.308 142.329 123.922 141.856C123.843 141.76 123.693 141.879 123.771 141.974C124.132 142.414 124.324 142.97 124.315 143.541C124.306 144.112 124.095 144.661 123.721 145.088C123.639 145.181 123.793 145.296 123.874 145.203V145.203Z" fill="white"/>
<path d="M126.197 149.948C124.96 150.043 123.734 149.663 122.762 148.884C122.666 148.807 122.552 148.962 122.648 149.039C123.661 149.848 124.938 150.24 126.225 150.139C126.347 150.129 126.318 149.938 126.197 149.948V149.948Z" fill="white"/>
<path d="M119.334 141.964C119.216 142.175 119.049 142.353 118.846 142.483C118.643 142.612 118.412 142.689 118.173 142.705C118.05 142.714 118.079 142.904 118.201 142.896C118.465 142.877 118.72 142.792 118.945 142.649C119.169 142.507 119.355 142.311 119.487 142.079C119.502 142.058 119.507 142.032 119.504 142.007C119.5 141.982 119.487 141.96 119.467 141.944C119.447 141.929 119.422 141.922 119.397 141.926C119.372 141.93 119.349 141.944 119.334 141.964H119.334Z" fill="white"/>
<path d="M184.043 156.724C184.043 156.79 184.017 156.853 183.972 156.899C183.926 156.945 183.863 156.972 183.799 156.972H0.345032C0.280072 156.972 0.217771 156.946 0.171837 156.899C0.125903 156.853 0.100098 156.79 0.100098 156.724C0.100098 156.658 0.125903 156.595 0.171837 156.549C0.217771 156.503 0.280072 156.476 0.345032 156.476H183.799C183.863 156.477 183.926 156.503 183.972 156.549C184.017 156.596 184.043 156.658 184.043 156.724V156.724Z" fill="#3F3D56"/>
<path d="M118.268 60.93C118.779 60.93 119.194 60.5108 119.194 59.9936C119.194 59.4764 118.779 59.0572 118.268 59.0572C117.756 59.0572 117.342 59.4764 117.342 59.9936C117.342 60.5108 117.756 60.93 118.268 60.93Z" fill="#3F3D56"/>
<path d="M106.67 67.2066L119.156 59.2752C119.269 59.2034 119.396 59.1556 119.527 59.1345C119.659 59.1134 119.794 59.1195 119.923 59.1525C120.052 59.1855 120.174 59.2446 120.28 59.3264C120.386 59.4081 120.475 59.5108 120.541 59.6281C120.606 59.7455 120.648 59.8751 120.663 60.0091C120.678 60.1431 120.665 60.2788 120.627 60.408C120.588 60.5371 120.525 60.657 120.439 60.7605C120.353 60.864 120.248 60.9488 120.129 61.0099L106.983 67.7657C106.91 67.8032 106.826 67.8108 106.747 67.787C106.669 67.7631 106.602 67.7096 106.562 67.6376C106.522 67.5655 106.51 67.4806 106.53 67.4003C106.55 67.32 106.6 67.2506 106.67 67.2066V67.2066Z" fill="#E4E4E4"/>
<path d="M81.6185 84.2848C81.5201 84.1369 81.4687 83.9622 81.4713 83.7841C81.4738 83.6059 81.5301 83.4328 81.6327 83.2879C81.844 83.0019 82.1254 82.7763 82.449 82.6334C83.1172 82.2896 83.8369 82.0597 84.5791 81.9529C85.1431 81.8719 85.7588 81.8461 86.1963 81.4772C86.6309 81.1108 86.8732 80.4256 87.4363 80.3684C87.9808 80.3131 88.3993 80.9156 88.9453 80.953C89.6182 80.9991 90.0588 80.2028 90.7136 80.0395C91.1519 79.9302 91.6026 80.1231 92.0137 80.3117L94.481 81.4433L95.7456 82.0234C96.1873 82.226 96.6855 82.4989 96.7689 82.982C96.8835 83.6458 96.1533 84.1142 95.5289 84.3498C91.0706 86.0133 86.1716 86.0139 81.7128 84.3516" fill="#4F517D"/>
<path d="M85.3355 96.5141C103.239 96.5141 117.753 94.4179 117.753 91.832C117.753 89.2462 103.239 87.1499 85.3355 87.1499C67.4316 87.1499 52.9177 89.2462 52.9177 91.832C52.9177 94.4179 67.4316 96.5141 85.3355 96.5141Z" fill="#3F3D56"/>
<path d="M151.097 120.861H128.868C127.845 120.861 127.015 121.7 127.015 122.734C127.015 123.768 127.845 124.607 128.868 124.607H151.097C152.12 124.607 152.95 123.768 152.95 122.734C152.95 121.7 152.12 120.861 151.097 120.861Z" fill="#3F3D56"/>
<path d="M161.87 87.4704L154.528 122.732L156.44 131.757L160.051 148.789V156.445C160.051 156.456 160.05 156.466 160.049 156.476C160.047 156.646 160.017 156.813 159.958 156.972H157.056C156.997 156.813 156.966 156.646 156.965 156.476C156.964 156.466 156.963 156.456 156.963 156.445V149.118L153.686 133.659L153.024 130.538L151.741 124.488L151.371 122.736V122.734L151.737 120.978L152.019 119.623L158.849 86.8294C158.89 86.6287 158.97 86.4382 159.085 86.2688C159.199 86.0994 159.345 85.9544 159.515 85.8422C159.685 85.73 159.875 85.6527 160.074 85.6147C160.273 85.5768 160.478 85.5789 160.677 85.621C160.875 85.6631 161.063 85.7444 161.231 85.8601C161.398 85.9759 161.542 86.1239 161.652 86.2956C161.763 86.4674 161.84 86.6595 161.877 86.8611C161.914 87.0626 161.912 87.2697 161.87 87.4703L161.87 87.4704Z" fill="#3F3D56"/>
<path d="M130.411 122.734V156.445C130.412 156.456 130.411 156.466 130.409 156.477C130.408 156.646 130.377 156.813 130.319 156.972H127.417C127.358 156.813 127.327 156.646 127.326 156.477C127.324 156.466 127.324 156.456 127.324 156.445V122.734C127.324 122.32 127.487 121.923 127.776 121.63C128.066 121.338 128.458 121.173 128.868 121.173C129.277 121.173 129.67 121.338 129.959 121.63C130.249 121.923 130.411 122.32 130.411 122.734Z" fill="#3F3D56"/>
<path d="M132.573 117.115H147.392C148.866 117.115 150.28 117.707 151.322 118.761C152.364 119.815 152.95 121.244 152.95 122.734V122.734H127.015C127.015 121.244 127.601 119.815 128.643 118.761C129.685 117.707 131.099 117.115 132.573 117.115V117.115Z" fill="#3F3D56"/>
<path d="M154.802 133.659H128.868C128.459 133.659 128.066 133.494 127.776 133.202C127.487 132.909 127.324 132.512 127.324 132.098C127.324 131.684 127.487 131.287 127.776 130.995C128.066 130.702 128.459 130.537 128.868 130.537H154.802C155.212 130.537 155.604 130.702 155.894 130.995C156.183 131.287 156.346 131.684 156.346 132.098C156.346 132.512 156.183 132.909 155.894 133.202C155.604 133.494 155.212 133.659 154.802 133.659Z" fill="#3F3D56"/>
<path d="M34.1688 124.664H60.3275C61.3506 124.664 62.1799 123.825 62.1799 122.791V122.223C62.1799 121.189 61.3506 120.35 60.3275 120.35H34.1688C33.1457 120.35 32.3163 121.189 32.3163 122.223V122.791C32.3163 123.825 33.1457 124.664 34.1688 124.664Z" fill="#3F3D56"/>
<path d="M33.8993 122.532L33.4259 124.505L31.6887 131.73L30.9396 134.851L27.461 149.331V155.613C27.4619 155.92 27.3716 156.221 27.2017 156.476C27.0681 156.683 26.8865 156.853 26.6728 156.972H25.1619C24.9482 156.853 24.7666 156.683 24.633 156.476C24.4631 156.221 24.3727 155.92 24.3736 155.613V148.956L28.2391 132.87L30.7337 122.482L22.2742 81.8518C22.2324 81.6512 22.23 81.4443 22.2673 81.2429C22.3046 81.0414 22.3807 80.8493 22.4915 80.6777C22.6022 80.506 22.7454 80.3581 22.9127 80.2424C23.08 80.1267 23.2682 80.0454 23.4666 80.0033C23.665 79.9612 23.8697 79.959 24.0689 79.9969C24.2682 80.0348 24.458 80.1121 24.6277 80.2242C24.7974 80.3364 24.9436 80.4812 25.0578 80.6505C25.1721 80.8198 25.2522 81.0102 25.2937 81.2109L33.1131 118.757L33.4733 120.489L33.8931 122.507L33.8993 122.532Z" fill="#3F3D56"/>
<path d="M61.5913 122.507V155.613C61.5922 155.92 61.5019 156.221 61.3319 156.476C61.1984 156.683 61.0167 156.853 60.803 156.972H59.2901C59.0774 156.852 58.8966 156.682 58.7632 156.476C58.5933 156.221 58.503 155.92 58.5039 155.613V122.507C58.5039 122.093 58.6666 121.696 58.9561 121.404C59.2456 121.111 59.6382 120.946 60.0476 120.946C60.457 120.946 60.8497 121.111 61.1392 121.404C61.4287 121.696 61.5913 122.093 61.5913 122.507Z" fill="#3F3D56"/>
<path d="M62.1799 122.507H32.3163V121.656C32.3163 120.918 32.46 120.187 32.7393 119.506C33.0186 118.824 33.428 118.204 33.944 117.683C34.46 117.161 35.0727 116.747 35.7469 116.465C36.4212 116.182 37.1438 116.037 37.8736 116.037H56.6226C58.0965 116.037 59.51 116.629 60.5522 117.683C61.5944 118.736 62.1799 120.166 62.1799 121.656V122.507H62.1799Z" fill="#3F3D56"/>
<path d="M60.0468 134.851H30.1831C29.7737 134.851 29.381 134.686 29.0915 134.394C28.802 134.101 28.6394 133.704 28.6394 133.29C28.6394 132.876 28.802 132.479 29.0915 132.186C29.381 131.894 29.7737 131.729 30.1831 131.729H60.0468C60.4562 131.729 60.8488 131.894 61.1383 132.186C61.4278 132.479 61.5905 132.876 61.5905 133.29C61.5905 133.704 61.4278 134.101 61.1383 134.394C60.8488 134.686 60.4562 134.851 60.0468 134.851Z" fill="#3F3D56"/>
<path d="M98.4263 148.465L95.1819 146.896L99.6387 133.185L104.427 135.5L98.4263 148.465Z" fill="#9E616A"/>
<path d="M120.415 147.223L116.926 148.093L111.871 134.599L117.02 133.315L120.415 147.223Z" fill="#9E616A"/>
<path d="M107.043 88.8702C107.505 89.63 108.244 90.1769 109.1 90.394C109.956 90.6112 110.862 90.4814 111.625 90.0324C111.778 89.9386 111.923 89.832 112.059 89.7138L122.317 95.6653L121.872 89.556L112.199 84.841C111.673 84.3065 110.986 83.9637 110.246 83.8662C109.506 83.7688 108.756 83.9224 108.111 84.3027C107.74 84.5279 107.418 84.8258 107.163 85.1789C106.907 85.532 106.725 85.9331 106.625 86.3588C106.525 86.7844 106.511 87.2258 106.583 87.6571C106.654 88.0885 106.811 88.5009 107.043 88.8702V88.8702Z" fill="#9E616A"/>
<path d="M117.907 93.4242L119.72 94.5414L127.864 99.5619C128.398 99.9003 128.994 100.129 129.616 100.234C130.239 100.34 130.875 100.32 131.49 100.177C132.105 100.033 132.686 99.7687 133.199 99.3981C133.713 99.0276 134.149 98.5583 134.483 98.0171C135.086 97.0128 135.3 95.8182 135.082 94.6641L131.463 76.3825C131.329 75.6648 131.044 74.9848 130.626 74.3889C130.209 73.793 129.669 73.2953 129.043 72.9298C128.418 72.5644 127.722 72.3397 127.003 72.2712C126.284 72.2027 125.558 72.292 124.876 72.533C123.73 72.9402 122.781 73.7736 122.221 74.8635C121.661 75.9535 121.533 77.2182 121.862 78.4003L125.647 91.3744L119.846 88.6399L117.907 93.4242Z" fill="#E6E6E6"/>
<path d="M113.62 143.441L108.037 132.121L108.038 132.095L108.589 111.333C108.596 111.148 108.611 110.962 108.633 110.78C108.73 109.947 108.991 109.143 109.399 108.413C109.807 107.683 110.355 107.043 111.01 106.529C111.638 106.033 112.357 105.668 113.125 105.455C113.894 105.243 114.697 105.187 115.487 105.291L131.451 107.38L132.005 105.091L132.108 105.053L147.404 99.3859L147.492 99.531C149.495 102.826 150.896 109.409 151.277 111.348L151.283 111.376C151.291 111.417 151.296 111.442 151.297 111.449C152.085 114.758 148.831 120.239 145.59 121.063C138.763 122.822 132.657 121.45 125.586 119.861C123.051 119.29 120.431 118.701 117.545 118.192L117.631 119.909C117.701 121.231 117.973 122.534 118.436 123.772C118.951 125.296 119.357 126.499 118.498 129.009L118.082 130.223C118.297 130.825 118.372 131.47 118.299 132.107C118.226 132.744 118.007 133.354 117.661 133.891L117.577 134.02L121.259 143.439L113.62 143.441Z" fill="#2F2E41"/>
<path d="M104.447 138.435L97.7898 137.81L100.148 130.184C100.635 125.204 101.862 120.327 103.786 115.718L107.003 108.009C107.011 107.838 107.025 107.665 107.046 107.496C107.143 106.664 107.403 105.859 107.812 105.129C108.22 104.399 108.767 103.759 109.423 103.246C110.051 102.749 110.77 102.384 111.538 102.172C112.307 101.959 113.11 101.904 113.9 102.008L129.841 104.093L130.535 98.202L145.835 96.1321L145.905 96.2473C148.579 100.646 150.277 104.09 151.248 107.086C151.297 107.238 151.34 107.394 151.377 107.549C152.17 110.881 150.191 114.258 146.965 115.078C138.746 117.197 128.861 117.138 115.866 114.892L109.576 130.025C108.975 131.47 108.231 132.85 107.355 134.144L104.447 138.435Z" fill="#2F2E41"/>
<path d="M127.67 62.041C131.929 62.041 135.381 58.4725 135.381 54.0705C135.381 49.6686 131.929 46.1 127.67 46.1C123.41 46.1 119.958 49.6686 119.958 54.0705C119.958 58.4725 123.41 62.041 127.67 62.041Z" fill="#9E616A"/>
<path d="M129.896 104.372L128.79 100.364L128.518 98.387L126.927 98.4406L123.806 91.1566L122.594 89.2359C122.346 88.9727 122.122 88.7196 121.922 88.4767C120.658 87.0331 119.646 85.3842 118.926 83.5995C118.421 82.3171 118.125 80.9609 118.049 79.5831C117.823 75.5133 119.519 71.2074 123.237 66.4202C123.176 66.2507 123.135 66.0745 123.116 65.8953C123.049 65.3138 123.213 64.7292 123.57 64.2688C123.928 63.8084 124.451 63.5094 125.025 63.4369L128.611 63.0298C128.89 62.9979 129.172 63.0224 129.441 63.1018C129.711 63.1812 129.962 63.3139 130.18 63.4923C130.408 63.6769 130.597 63.9055 130.736 64.1647C130.876 64.4239 130.963 64.7086 130.992 65.0021C131.04 65.4563 130.952 65.9145 130.739 66.3172C132.566 66.5517 134.288 67.3143 135.698 68.5135C137.107 69.7127 138.145 71.2975 138.686 73.0779C140.831 77.127 142.541 81.397 143.786 85.8145C144.032 86.6798 143.923 87.5713 143.817 88.4335C143.719 89.2299 143.618 90.0534 143.788 90.8742C143.961 91.7091 144.376 92.5465 144.816 93.4331C145.32 94.4486 145.841 95.4986 145.981 96.569L145.991 96.6442L129.896 104.372Z" fill="#E4E4E4"/>
<path opacity="0.2" d="M119.021 83.56C119.738 85.3344 120.745 86.9739 122 88.4098C122.216 88.6694 122.443 88.9245 122.68 89.18L123.9 91.1152C128.397 87.7073 132.041 74.2891 132.041 74.2891L126.967 73.2913L119.021 83.56Z" fill="black"/>
<path d="M115.949 62.7857C116.394 63.5573 116.523 64.4737 116.309 65.3399C116.095 66.2062 115.555 66.9539 114.804 67.424C114.65 67.5171 114.489 67.5972 114.322 67.6634L114.681 79.6153L109.562 76.3571L110.005 65.5069C109.787 64.7849 109.812 64.0103 110.076 63.3039C110.339 62.5976 110.826 61.9993 111.461 61.6024C111.831 61.3762 112.242 61.2272 112.67 61.1643C113.098 61.1013 113.534 61.1257 113.952 61.236C114.371 61.3463 114.763 61.5403 115.106 61.8065C115.449 62.0726 115.736 62.4056 115.949 62.7857V62.7857Z" fill="#9E616A"/>
<path d="M115.131 75.1038L109.501 75.9132L109.743 87.7C109.757 88.5408 109.984 89.3641 110.401 90.0915C110.818 90.8189 111.413 91.4264 112.128 91.8561V91.8561C113.001 92.3757 114.018 92.5941 115.025 92.4786C116.032 92.363 116.975 91.9196 117.711 91.2152L131.002 78.29C131.937 77.3931 132.497 76.168 132.566 74.8667C132.635 73.5654 132.208 72.2867 131.373 71.2938V71.2938C130.96 70.7994 130.453 70.3939 129.882 70.1015C129.311 69.8091 128.688 69.6356 128.049 69.5914C127.41 69.5472 126.769 69.6331 126.164 69.8441C125.559 70.0551 125.002 70.3869 124.526 70.8198C124.395 70.9385 124.27 71.0643 124.152 71.1966L115.375 81.4042L115.131 75.1038Z" fill="#E6E6E6"/>
<path d="M68.0443 151.985L72.0402 151.985L73.9413 136.402L68.0437 136.402L68.0443 151.985Z" fill="#FFB6B6"/>
<path d="M45.3947 62.2724C49.7994 62.2724 53.3701 58.6623 53.3701 54.2091C53.3701 49.7558 49.7994 46.1458 45.3947 46.1458C40.9899 46.1458 37.4192 49.7558 37.4192 54.2091C37.4192 58.6623 40.9899 62.2724 45.3947 62.2724Z" fill="#FFB6B6"/>
<path d="M73.3445 147.185H67.6859L66.2433 145.23L65.8528 143.388L65.5167 143.059C65.0608 142.617 64.766 142.032 64.6801 141.399C64.5943 140.766 64.7224 140.122 65.0437 139.572L60.9427 120.227C59.8686 120.131 47.7555 119.036 39.3353 117.53C37.1804 117.144 35.4979 116.085 34.3346 114.382C31.4761 110.197 32.7006 103.426 32.7133 103.358L32.7274 103.282L32.803 103.274L52.4707 101.042L52.4972 101.055C53.1498 101.367 68.5108 108.74 71.021 111.278C72.1545 112.424 74.6835 119.233 75.2496 126.471C75.351 127.768 74.9861 129.089 74.6331 130.366C74.3029 131.561 73.9614 132.797 74.0288 133.965C74.133 135.767 74.2316 137.658 74.3221 139.585C74.3366 139.892 74.5654 140.209 74.7866 140.516C75.0177 140.837 75.236 141.141 75.2498 141.458C75.3843 144.534 73.3955 147.12 73.3754 147.145L73.3445 147.185Z" fill="#2F2E41"/>
<path d="M74.6329 75.6857C74.2044 75.5673 73.7555 75.5453 73.3178 75.6212C72.88 75.6972 72.464 75.8693 72.0992 76.1253C71.7343 76.3814 71.4294 76.7153 71.2059 77.1033C70.9825 77.4914 70.8459 77.9243 70.8059 78.3716L64.1792 80.4655L64.4556 84.8473L73.7727 81.7573C74.5203 81.7756 75.2485 81.5159 75.8194 81.0276C76.3903 80.5393 76.7642 79.8562 76.8702 79.1078C76.9762 78.3594 76.8071 77.5976 76.3947 76.9669C75.9823 76.3362 75.3555 75.8804 74.6329 75.6857V75.6857Z" fill="#FFB6B6"/>
<path d="M70.3093 82.9366L65.3567 84.8318L65.2301 85.0802C64.9264 85.6757 64.4012 86.1249 63.77 86.3289C63.1388 86.533 62.4533 86.4752 61.8642 86.1682V86.1682L50.7322 90.4279C50.7322 90.4279 45.7608 85.3982 42.2214 80.9095L43.4277 73.4081C43.7071 71.6677 44.3009 69.994 45.1795 68.4709C52.4382 70.0801 56.605 80.339 56.605 80.339L69.687 77.8153L70.3093 82.9366Z" fill="#4F517D"/>
<path d="M44.2612 61.8414C42.2645 62.3866 40.0633 61.6617 38.5051 60.2868C36.9469 58.9119 35.9722 56.9636 35.4105 54.9512C34.9992 53.4774 34.8042 51.8414 35.4533 50.4577C36.1024 49.074 37.8493 48.1405 39.197 48.8395C38.3656 47.8601 38.781 46.2404 39.752 45.4026C40.723 44.5648 42.0564 44.3246 43.3263 44.1933C45.1693 44.0027 47.073 43.9814 48.8268 44.5851C50.5806 45.1887 52.174 46.5085 52.7229 48.2974C53.2835 48.5613 53.9148 48.6298 54.518 48.4921C55.1212 48.3544 55.6621 48.0183 56.0562 47.5365C56.1578 48.0899 56.0762 48.6617 55.824 49.1634C55.5718 49.6651 55.1631 50.0688 54.6612 50.3121L57.3483 49.4313C57.8104 50.4203 57.0006 51.6442 55.9651 51.9609C54.9296 52.2776 53.8119 51.9315 52.8292 51.4739C51.8466 51.0164 50.8943 50.4379 49.827 50.2595C48.7596 50.081 47.5059 50.4278 47.0122 51.401C46.7536 51.9108 46.7401 52.5077 46.59 53.0601C46.4398 53.6126 46.0595 54.1853 45.4946 54.2305C45.1378 54.259 44.7884 54.0668 44.4325 54.1061C43.9913 54.1549 43.6536 54.5589 43.5361 54.9916C43.4475 55.4326 43.4464 55.8869 43.5329 56.3283L44.2155 61.6031" fill="#2F2E41"/>
<path d="M34.3805 115.346C34.379 115.346 34.3774 115.346 34.376 115.345L34.3129 115.334L34.2947 115.272C34.0654 114.493 33.7736 113.694 33.4914 112.923C33.0758 111.853 32.7249 110.76 32.4407 109.648C32.2169 108.585 32.0618 107.508 31.9763 106.424C31.8976 105.638 31.8162 104.824 31.6777 104.023C31.6163 103.668 31.8492 103.331 32.0744 103.006C32.2833 102.704 32.4806 102.418 32.4392 102.149C32.3968 101.873 32.0942 101.57 31.8016 101.277C31.4808 100.956 31.1491 100.623 31.1021 100.274C30.4628 95.5043 30.1652 90.6943 30.2117 85.8813C30.2778 79.2222 30.5755 74.6832 31.0964 72.3903C32.4973 66.2251 38.9691 65.1 39.9821 64.9611C40.09 64.6706 40.2559 64.4056 40.4694 64.1827C40.683 63.9598 40.9396 63.7836 41.2234 63.6653C41.5072 63.547 41.812 63.489 42.119 63.4949C42.4259 63.5008 42.7283 63.5706 43.0074 63.6998L47.6057 65.8279C48.5385 66.2612 49.3732 66.8837 50.0579 67.6568C50.7426 68.43 51.2627 69.3372 51.586 70.3222L52.2691 72.4276L52.6113 86.5613L50.7151 96.5141L54.42 102.133C34.6743 113.093 34.4441 115.346 34.3805 115.346Z" fill="#4F517D"/>
<path d="M65.894 150.415L67.1933 150.415L72.2656 148.33L74.9843 150.415H74.9846C76.521 150.415 77.9944 151.032 79.0808 152.13C80.1671 153.229 80.7775 154.718 80.7776 156.272V156.462L65.8943 156.462L65.894 150.415Z" fill="#2F2E41"/>
<path d="M76.2921 85.7716C75.909 85.5442 75.4814 85.4046 75.0391 85.3624C74.5969 85.3203 74.151 85.3767 73.7327 85.5277C73.3143 85.6786 72.9339 85.9205 72.618 86.2362C72.3021 86.5519 72.0586 86.9338 71.9045 87.355L64.967 87.6285L64.0322 90.8956L73.8949 91.406C74.6119 91.6208 75.3819 91.5622 76.059 91.2414C76.7362 90.9206 77.2734 90.3598 77.5689 89.6653C77.8643 88.9707 77.8976 88.1908 77.6622 87.4731C77.4269 86.7555 76.9394 86.1501 76.2921 85.7716V85.7716Z" fill="#FFB6B6"/>
<path d="M70.5935 91.7583L63.4672 91.6685L62.5652 91.6562L48.0665 91.4715C48.0665 91.4715 44.1293 87.674 40.7009 83.7641L41.1815 80.2502C41.6502 76.8016 43.3422 73.6427 45.9427 71.3613C50.8529 74.6784 53.7005 81.2442 53.7005 81.2442L58.4749 83.4042C61.835 83.5562 65.1092 84.5256 68.0195 86.2302L69.5896 87.1499L70.5935 91.7583Z" fill="#4F517D"/>
<path d="M122.96 153.87L120.589 154.462L119.613 152.304L119.082 154.838L112.793 156.407C112.492 156.482 112.174 156.458 111.887 156.338C111.601 156.218 111.359 156.008 111.198 155.74C111.038 155.471 110.966 155.158 110.994 154.845C111.022 154.532 111.148 154.237 111.354 154.002L115.52 149.242L114.961 146.954L120.321 145.955L122.96 153.87Z" fill="#2F2E41"/>
<path d="M97.841 154.61L95.5798 153.677L96.0476 151.352L94.1425 153.083L88.1454 150.609C87.8579 150.49 87.6155 150.282 87.4535 150.014C87.2914 149.746 87.2183 149.433 87.2448 149.12C87.2713 148.807 87.3959 148.511 87.6006 148.275C87.8053 148.039 88.0792 147.875 88.3824 147.808L94.5216 146.44L95.4026 144.258L100.317 146.641L97.841 154.61Z" fill="#2F2E41"/>
<path d="M89.9664 90.9996H88.114C86.1222 90.9973 84.2126 90.1964 82.8042 88.7724C81.3958 87.3485 80.6036 85.4179 80.6013 83.4042V83.3001H97.4791V83.4042C97.4769 85.4179 96.6846 87.3485 95.2762 88.7724C93.8678 90.1964 91.9582 90.9973 89.9664 90.9996V90.9996Z" fill="#E4E4E4"/>
<path d="M88.1142 80.5949C88.1142 81.1121 87.1879 81.5314 87.1879 81.5314C87.1879 81.5314 86.2617 81.1121 86.2617 80.5949C86.2617 80.0778 87.1879 79.6585 87.1879 79.6585C87.1879 79.6585 88.1142 80.0778 88.1142 80.5949Z" fill="#3F3D56"/>
<path d="M93.6713 80.5949C93.6713 81.1121 92.7451 81.5314 92.7451 81.5314C92.7451 81.5314 91.8188 81.1121 91.8188 80.5949C91.8188 80.0778 92.7451 79.6585 92.7451 79.6585C92.7451 79.6585 93.6713 80.0778 93.6713 80.5949Z" fill="#3F3D56"/>
<path d="M89.9665 82.4677C89.9665 82.9849 89.0402 83.4042 89.0402 83.4042C89.0402 83.4042 88.114 82.9849 88.114 82.4677C88.114 81.9506 89.0402 81.5313 89.0402 81.5313C89.0402 81.5313 89.9665 81.9506 89.9665 82.4677Z" fill="#3F3D56"/>
<path d="M83.4829 78.618C83.9944 78.618 84.4091 78.1988 84.4091 77.6816C84.4091 77.1644 83.9944 76.7452 83.4829 76.7452C82.9713 76.7452 82.5566 77.1644 82.5566 77.6816C82.5566 78.1988 82.9713 78.618 83.4829 78.618Z" fill="#3F3D56"/>
<path d="M70.0126 75.6692L84.6207 77.7089C84.7529 77.7273 84.8799 77.7727 84.9943 77.8421C85.1086 77.9116 85.2079 78.0038 85.286 78.1132C85.3641 78.2225 85.4195 78.3467 85.4488 78.4783C85.4781 78.6099 85.4807 78.7461 85.4565 78.8787C85.4323 79.0114 85.3817 79.1377 85.3079 79.25C85.234 79.3623 85.1384 79.4583 85.0268 79.5323C84.9153 79.6062 84.79 79.6565 84.6587 79.6801C84.5273 79.7038 84.3926 79.7002 84.2627 79.6697L69.8972 76.3012C69.8174 76.2825 69.7479 76.2334 69.703 76.1642C69.6581 76.0949 69.6413 76.0109 69.6562 75.9294C69.671 75.848 69.7164 75.7755 69.7828 75.727C69.8492 75.6786 69.9315 75.6578 70.0126 75.6692V75.6692Z" fill="#E4E4E4"/>
<path d="M148.305 50.6138C146.995 49.0683 146.371 47.0178 145.324 45.2628C144.276 43.5078 142.452 41.9371 140.525 42.3455C139.197 42.627 138.171 43.8118 137.652 45.1327C137.132 46.4536 137.035 47.9103 136.944 49.3373C136.976 46.4047 135.065 43.5617 132.432 42.6259C129.8 41.6902 126.649 42.734 124.995 45.09C124.273 44.4135 123.331 44.0284 122.347 44.0075C121.363 43.9866 120.406 44.3315 119.656 44.9767C118.177 46.3136 117.849 48.8583 118.938 50.5637C120.026 52.269 122.382 52.9043 124.111 51.9585L124.723 52.527C124.379 53.7439 125.046 55.1812 126.168 55.6393C127.077 56.0108 128.362 55.9489 128.702 56.914C128.94 57.5884 128.495 58.3082 128.022 58.8264C127.55 59.3446 126.988 59.8797 126.931 60.5968C126.845 61.6788 127.951 62.4367 128.957 62.665C131.381 63.2154 134.07 62.0805 135.468 59.9177C135.495 59.8759 135.524 59.8342 135.555 59.7924C136.339 58.7789 136.911 57.6145 137.234 56.3702C137.558 55.126 137.628 53.8281 137.438 52.5558C137.36 52.056 137.439 51.6841 137.78 51.5657C139.253 51.054 143.382 52.128 144.631 53.0986C145.88 54.0693 146.881 55.3538 148.084 56.3871C149.288 57.4203 150.821 58.2174 152.349 57.936C153.573 57.7106 154.614 56.8124 155.314 55.7289C156.015 54.6454 156.418 53.3825 156.779 52.1274C154.072 53.7079 150.369 53.0463 148.305 50.6138Z" fill="#2F2E41"/>
</g>
<defs>
<clipPath id="clip0_23_3445">
<rect width="183.943" height="155.973" fill="white" transform="translate(0.100098 0.99884)"/>
</clipPath>
</defs>
</svg>
