<svg width="184" height="140" viewBox="0 0 184 140" fill="none" xmlns="http://www.w3.org/2000/svg">
<g clip-path="url(#clip0_23_3565)">
<path d="M183.3 76.7808C183.3 76.9158 183.196 77.0252 183.068 77.0252H0.699951V76.5365H183.068C183.196 76.5365 183.3 76.6459 183.3 76.7808V76.7808Z" fill="#E6E6E6"/>
<path d="M60.6633 17.441C64.4696 17.441 67.5552 14.1967 67.5552 10.1946C67.5552 6.19246 64.4696 2.94812 60.6633 2.94812C56.8571 2.94812 53.7715 6.19246 53.7715 10.1946C53.7715 14.1967 56.8571 17.441 60.6633 17.441Z" fill="#FFB6B6"/>
<path d="M64.3154 18.97L55.2439 21.6952L53.948 24.7611L51.0321 39.4091V62.5735C51.0321 62.5735 47.4683 70.7491 49.4122 77.9028C51.4901 85.5494 58.8077 76.5241 64.3154 77.5541C69.8231 78.5841 78.5706 79.6061 78.5706 79.6061L73.3869 54.7385L72.091 24.4205L64.3154 18.97H64.3154Z" fill="#E6E6E6"/>
<path d="M62.6034 12.5676L61.2022 11.8309C61.2022 11.8309 60.8519 8.51608 60.1514 7.77945C59.4508 7.04282 59.4508 6.67449 59.4508 6.67449L60.5016 5.20122C60.5016 5.20122 55.2472 8.14777 54.1963 6.30618C53.1455 4.46459 54.5466 3.72795 54.5466 3.72795L52.7952 2.25468C52.7952 2.25468 54.8969 3.72795 55.2472 2.623C55.5975 1.51804 57.6993 0.768355 57.6993 0.768355C57.6993 0.768355 62.289 1.86026 61.9208 0.768355C61.5525 -0.323548 62.9537 0.781407 63.304 1.14972C63.6543 1.51804 66.8069 5.20122 67.1572 4.8329C67.5075 4.46459 69.259 5.56954 68.9087 5.93786C68.5584 6.30618 68.5584 6.67449 68.9087 7.04281C69.259 7.41114 71.3608 11.4626 69.6093 12.9359C67.8578 14.4092 65.4058 16.2508 65.7561 17.724C66.1064 19.1973 65.7561 12.9359 62.6034 12.5676L62.6034 12.5676Z" fill="#2F2E41"/>
<path d="M28.6299 30.8122C26.861 29.2089 26.214 26.9496 27.1846 25.7661C28.1552 24.5826 30.3756 24.9232 32.1449 26.5273C32.86 27.1579 33.4212 27.9594 33.7813 28.8647L41.1946 35.7576L38.0441 39.3464L31.0704 32.1703C30.1654 31.929 29.3286 31.4633 28.6299 30.8122L28.6299 30.8122Z" fill="#FFB6B6"/>
<path d="M54.0256 24.8783L58.9087 24.4115L63.1912 45.8863C64.0072 49.9783 61.4561 53.9732 57.5451 54.7281L54.0256 55.4074L31.593 34.64L34.8704 28.8954L51.4134 39.8065L54.0256 24.8783V24.8783Z" fill="#E6E6E6"/>
<path d="M43.1238 120.379C43.1238 120.379 39.2507 127.942 39.5273 127.651C39.804 127.361 44.507 129.106 44.507 129.106L47.2735 121.543L43.1238 120.379Z" fill="#FFB6B6"/>
<path d="M37.4071 67.4397C37.4071 67.4397 35.4245 75.7726 35.6245 75.419C35.8245 75.0655 40.7915 75.5394 40.7915 75.5394L41.7016 67.493L37.4071 67.4397H37.4071Z" fill="#FFB6B6"/>
<path d="M71.8954 66.0386C63.1426 67.3314 55.2368 66.2042 48.7951 60.8936C48.7951 60.8936 44.0921 77.474 52.6682 79.2193C61.2443 80.9646 70.7888 77.9648 71.8954 75.056C73.002 72.1471 71.8954 66.0386 71.8954 66.0386Z" fill="#2F2E41"/>
<path d="M55.5729 71.2745L46.0284 94.927L41.6021 122.27L47.4117 123.725L57.8035 98.563L71.8952 74.4742L55.5729 71.2745Z" fill="#2F2E41"/>
<path d="M54.3282 64.5296C54.3282 64.5296 52.115 46.4948 47.9652 45.3312C45.9422 44.764 44.0507 44.819 42.6432 45.0243C41.2247 45.2312 40.0938 46.3708 39.8458 47.8539L36.0747 70.4018H41.4073L43.1238 64.2932L47.6886 72.6743L54.3282 64.5296V64.5296Z" fill="#2F2E41"/>
<path d="M40.7722 73.2561L35.4995 72.6744L34.6859 75.8741C34.6859 75.8741 26.1098 84.0188 30.5362 84.6006C34.9626 85.1824 39.1123 81.9827 39.1123 81.9827L45.2013 78.31C45.2013 78.31 42.8471 71.7108 41.1872 71.7108C39.5273 71.7108 40.7722 73.2561 40.7722 73.2561V73.2561Z" fill="#2F2E41"/>
<path d="M43.5388 127.797L38.2661 127.215L37.4525 130.415C37.4525 130.415 28.8764 138.56 33.3028 139.141C37.7292 139.723 41.8789 136.523 41.8789 136.523L47.9679 132.851C47.9679 132.851 47.5502 125.961 45.8903 125.961C44.2304 125.961 43.5388 127.797 43.5388 127.797Z" fill="#2F2E41"/>
<path d="M70.2362 83.7617C69.6005 86.0543 67.9601 87.5677 66.5726 87.142C65.185 86.7164 64.5759 84.5131 65.2122 82.2198C65.4544 81.3001 65.9025 80.4547 66.5192 79.7544L69.3295 70.0764L73.6207 71.5599L70.3947 80.9431C70.5567 81.8825 70.5023 82.849 70.2362 83.7617V83.7617Z" fill="#FFB6B6"/>
<path d="M73.2064 24.4626L70.9688 23.7991V23.7991C68.8589 28.2131 67.9516 33.1548 68.3474 38.0774L69.4518 51.813L65.8079 75.9557L72.9499 77.8985L78.578 47.6005L73.2064 24.4626V24.4626Z" fill="#E6E6E6"/>
<path d="M29.645 62.2093C29.547 61.894 28.8044 62.0328 28.7331 61.7508C28.662 61.4698 29.3747 61.2342 29.9212 60.4424C30.0198 60.2996 30.6409 59.3997 30.4027 59.0213C29.9512 58.3039 26.8095 60.0906 26.0554 59.088C25.8899 58.8679 25.8218 58.4902 25.3288 57.7871C25.1327 57.5075 25.0068 57.3724 24.8565 57.3764C24.6431 57.3821 24.5668 57.6627 24.2315 58.171C23.7287 58.9333 23.5472 58.8376 23.216 59.4622C22.9701 59.9259 22.9409 60.2222 22.7636 60.2397C22.5126 60.2644 22.409 59.6871 22.1023 59.6647C21.7894 59.6418 21.4763 60.2122 21.3211 60.6579C21.0299 61.4942 21.2102 62.1335 21.2502 62.7705C21.2937 63.4628 21.1916 64.4763 20.4762 65.7771L13.7283 77.0813C15.1775 74.7769 19.2911 68.4928 20.9485 66.1877C21.427 65.5223 21.9412 64.8542 22.7325 64.7285C23.4945 64.6074 24.4215 65.0038 25.7155 64.9807C25.8666 64.978 26.2872 64.9649 26.3895 64.7305C26.4741 64.5367 26.2641 64.3683 26.3405 64.1861C26.4429 63.9418 26.9039 64.0466 27.5322 63.8844C27.9752 63.7699 28.2762 63.5809 28.535 63.4183C28.6131 63.3693 29.7755 62.6289 29.645 62.2093H29.645L29.645 62.2093Z" fill="#F2F2F2"/>
<path d="M11.971 64.8485C11.7956 64.8081 11.6461 65.2315 11.4939 65.1869C11.3422 65.1425 11.4379 64.7067 11.226 64.1962C11.1878 64.1042 10.9469 63.524 10.7015 63.5377C10.2364 63.5637 10.1639 65.7005 9.47833 65.8004C9.32786 65.8223 9.13187 65.7485 8.66146 65.8001C8.47432 65.8206 8.37499 65.8466 8.33347 65.9253C8.27456 66.037 8.38352 66.1574 8.52406 66.4771C8.73481 66.9565 8.63778 67.0226 8.83376 67.3737C8.97925 67.6344 9.10913 67.7349 9.06612 67.8315C9.00525 67.9681 8.70586 67.8551 8.60694 68.0068C8.50599 68.1617 8.68192 68.4879 8.84517 68.6966C9.15152 69.0882 9.50194 69.1795 9.81085 69.3427C10.1466 69.52 10.5902 69.8651 10.9909 70.6096L14.3207 77.3536C13.6631 75.9408 11.9167 72.0048 11.3189 70.4844C11.1464 70.0455 10.9828 69.5873 11.1525 69.1427C11.3158 68.7145 11.7683 68.3505 12.1309 67.6761C12.1733 67.5973 12.2885 67.3765 12.2086 67.256C12.1426 67.1565 12.0033 67.2163 11.9403 67.1243C11.8559 67.0009 12.0378 66.7932 12.1433 66.4222C12.2178 66.1606 12.2164 65.9507 12.2151 65.7702C12.2148 65.7158 12.2046 64.9023 11.971 64.8485V64.8485L11.971 64.8485Z" fill="#F2F2F2"/>
<path d="M15.293 66.4941L15.3976 65.478L15.4618 65.4142C15.7588 65.1191 15.9446 64.8064 16.0143 64.4846C16.0254 64.4334 16.034 64.3817 16.0428 64.329C16.0775 64.1201 16.1207 63.8604 16.3117 63.5906C16.4186 63.4404 16.7014 63.1007 16.993 63.2193C17.0718 63.2504 17.1249 63.304 17.1618 63.3609C17.1711 63.351 17.1806 63.3412 17.1907 63.3305C17.3167 63.2018 17.4048 63.1546 17.4897 63.1092C17.555 63.0743 17.6223 63.0383 17.7363 62.9425C17.7863 62.9004 17.8264 62.8626 17.8601 62.8308C17.9624 62.7347 18.0933 62.6222 18.2726 62.6668C18.4627 62.7214 18.5279 62.912 18.5711 63.0383C18.6483 63.2634 18.6721 63.4182 18.6878 63.5208C18.6935 63.5583 18.7001 63.6006 18.7051 63.6143C18.7467 63.7246 19.2689 63.7531 19.4654 63.765C19.9071 63.7902 20.2893 63.812 20.3812 64.13C20.4471 64.3575 20.3097 64.6056 19.9609 64.8871C19.8522 64.9747 19.7436 65.0351 19.649 65.0802C19.7072 65.1381 19.7535 65.2168 19.7564 65.324C19.7628 65.5777 19.5153 65.7724 19.0208 65.9037C18.8979 65.9366 18.7326 65.9803 18.5164 65.9693C18.4145 65.964 18.3253 65.9476 18.2492 65.9322C18.2379 65.9778 18.2171 66.0252 18.1796 66.0702C18.0695 66.2026 17.8918 66.2363 17.6505 66.1616C17.3842 66.0836 17.1737 65.9775 16.9881 65.8842C16.8259 65.8029 16.686 65.7334 16.5687 65.7145C16.3504 65.6824 16.1469 65.8241 15.9033 66.0126L15.293 66.4941H15.293L15.293 66.4941Z" fill="#F2F2F2"/>
<path d="M17.0348 60.707L16.0735 60.8582L15.9985 60.8091C15.6517 60.5819 15.3169 60.4723 15.0032 60.483C14.9533 60.4847 14.9035 60.4891 14.8528 60.4935C14.6518 60.5112 14.402 60.5332 14.1054 60.4073C13.94 60.3367 13.5558 60.1352 13.591 59.8085C13.5995 59.7206 13.6354 59.6529 13.6784 59.601C13.667 59.5941 13.6555 59.5869 13.6431 59.5793C13.4927 59.4838 13.427 59.4061 13.3637 59.3313C13.315 59.2738 13.2648 59.2144 13.1477 59.1228C13.0964 59.0826 13.0514 59.0515 13.0136 59.0252C12.8992 58.9455 12.7625 58.8409 12.7581 58.6472C12.7601 58.4401 12.9189 58.3254 13.0241 58.2494C13.2116 58.1138 13.348 58.0504 13.4384 58.0083C13.4715 57.993 13.5087 57.9756 13.5201 57.9671C13.6109 57.8968 13.5047 57.3585 13.4658 57.1556C13.377 56.7 13.3001 56.3057 13.5693 56.1316C13.7619 56.0068 14.025 56.0836 14.3724 56.367C14.4806 56.4553 14.5637 56.5505 14.6293 56.6353C14.6677 56.5614 14.7284 56.4943 14.8263 56.4642C15.058 56.3933 15.2999 56.5957 15.5461 57.0653C15.6076 57.1819 15.6897 57.3389 15.7344 57.5617C15.7554 57.6666 15.7629 57.7615 15.7681 57.8428C15.8129 57.8428 15.8618 57.8519 15.9126 57.8786C16.0624 57.957 16.1385 58.1292 16.131 58.3935C16.1268 58.6842 16.0825 58.9251 16.0438 59.1377C16.0102 59.3232 15.9817 59.4831 15.994 59.6073C16.0199 59.8374 16.2019 60.0084 16.4371 60.2083L17.0348 60.707H17.0348L17.0348 60.707Z" fill="#F2F2F2"/>
<path d="M17.1643 57.6718L17.269 56.6558L17.3332 56.5919C17.6302 56.2968 17.8159 55.9841 17.8856 55.6623C17.8967 55.6112 17.9053 55.5594 17.9141 55.5067C17.9489 55.2978 17.992 55.0381 18.183 54.7684C18.2899 54.6181 18.5727 54.2784 18.8644 54.3971C18.9431 54.4281 18.9962 54.4818 19.0331 54.5387C19.0424 54.5288 19.0519 54.5189 19.062 54.5083C19.188 54.3795 19.2762 54.3324 19.3611 54.287C19.4263 54.252 19.4937 54.2161 19.6076 54.1202C19.6577 54.0782 19.6977 54.0403 19.7314 54.0085C19.8338 53.9125 19.9647 53.8 20.144 53.8445C20.3341 53.8991 20.3992 54.0898 20.4425 54.216C20.5197 54.4411 20.5434 54.5959 20.5592 54.6986C20.5648 54.7361 20.5714 54.7783 20.5764 54.7921C20.618 54.9023 21.1402 54.9308 21.3367 54.9427C21.7784 54.9679 22.1606 54.9897 22.2525 55.3077C22.3185 55.5352 22.181 55.7834 21.8322 56.0648C21.7236 56.1524 21.6149 56.2128 21.5203 56.258C21.5785 56.3158 21.6249 56.3945 21.6277 56.5017C21.6341 56.7555 21.3866 56.9501 20.8921 57.0814C20.7693 57.1144 20.604 57.158 20.3877 57.147C20.2858 57.1417 20.1966 57.1253 20.1205 57.11C20.1092 57.1555 20.0884 57.2029 20.0509 57.2479C19.9409 57.3804 19.7631 57.414 19.5219 57.3394C19.2555 57.2613 19.0451 57.1552 18.8594 57.0619C18.6972 56.9807 18.5573 56.9112 18.44 56.8922C18.2217 56.8601 18.0182 57.0018 17.7746 57.1904L17.1643 57.6718H17.1643L17.1643 57.6718Z" fill="#F2F2F2"/>
<path d="M14.0474 77.1392L13.8774 76.9627L13.8805 76.7117L13.8774 76.9627L13.6412 76.9364C13.6423 76.9131 13.6408 76.8585 13.6391 76.7731C13.63 76.3057 13.6018 74.8832 13.7902 72.6975C13.9217 71.1718 14.1415 69.6231 14.4435 68.0936C14.746 66.5617 15.0599 65.4219 15.3121 64.5058C15.5024 63.8149 15.6944 63.1595 15.8819 62.5212C16.3823 60.8156 16.8547 59.2045 17.1473 57.3669C17.2128 56.9566 17.3488 56.1027 17.0704 55.0948C16.9089 54.5103 16.6323 53.9601 16.2481 53.46L16.62 53.1442C17.0439 53.6969 17.3498 54.3062 17.5291 54.9552C17.8378 56.0727 17.6897 57.0032 17.6185 57.4502C17.3207 59.3203 16.8435 60.9469 16.3382 62.6689C16.1517 63.3049 15.9603 63.9574 15.7708 64.6456C15.5209 65.5532 15.2098 66.6831 14.9113 68.1953C14.6127 69.7064 14.3957 71.2363 14.2656 72.7427C14.0797 74.9009 14.1076 76.3022 14.1168 76.7626C14.1215 77.0084 14.1225 77.0599 14.0474 77.1392V77.1392L14.0474 77.1392Z" fill="#F2F2F2"/>
<path d="M15.2281 54.0382C15.2089 54.0337 15.1897 54.0287 15.1704 54.0227C14.7783 53.9071 14.4637 53.5711 14.2352 53.0241C14.1282 52.7669 14.103 52.4962 14.0526 51.9563C14.0447 51.873 14.0098 51.4518 14.0527 50.8936C14.0806 50.5289 14.1179 50.3823 14.2123 50.2673C14.3172 50.1392 14.4584 50.0658 14.6077 50.0289C14.6117 49.9806 14.6267 49.9334 14.6566 49.8886C14.7793 49.7029 14.9849 49.7792 15.0964 49.8189C15.1526 49.8402 15.2226 49.8671 15.3014 49.8811C15.4251 49.9036 15.499 49.8807 15.6109 49.8466C15.718 49.814 15.8511 49.7733 16.035 49.7768C16.398 49.782 16.6668 49.9536 16.7554 50.01C17.2221 50.3049 17.3832 50.7753 17.5697 51.3199C17.6067 51.4291 17.7297 51.8237 17.7583 52.3319C17.779 52.6985 17.7333 52.8486 17.6809 52.9559C17.5739 53.1765 17.41 53.2787 17.0034 53.4939C16.5785 53.7193 16.3654 53.8321 16.1906 53.8901C15.7839 54.0244 15.5285 54.1087 15.2281 54.0382V54.0382V54.0382Z" fill="#F2F2F2"/>
<path d="M124.289 11.5104C124.289 11.5104 126.927 13.1373 126.062 14.7462C125.196 16.3551 123.99 18.5465 124.808 19.2367C125.627 19.9269 126.978 22.9699 126.978 22.9699C126.978 22.9699 132.745 22.123 132.203 26.8332C131.662 31.5433 128.953 32.1855 131.275 34.2576C133.597 36.3297 128.862 38.8079 128.862 38.8079C128.862 38.8079 125.592 37.7368 124.847 34.4428C124.101 31.1488 125.511 36.9614 125.038 37.3782C124.565 37.795 122.728 40.5422 121.428 36.8896C120.128 33.2371 121.415 31.821 119.698 29.6653C117.98 27.5096 116.812 24.0229 116.863 23.4134C116.915 22.8039 114.899 17.2422 118.002 15.0732C121.105 12.9042 124.289 11.5104 124.289 11.5104V11.5104Z" fill="#2F2E41"/>
<path d="M150.276 62.6157C151.808 63.9487 153.704 64.1982 154.51 63.173C155.317 62.1479 154.729 60.2366 153.196 58.9034C152.591 58.362 151.871 57.9808 151.097 57.7919L144.539 52.2302L142.123 55.5217L148.844 60.6551C149.166 61.4195 149.657 62.0918 150.276 62.6157V62.6157Z" fill="#FFB6B6"/>
<path d="M130.621 32.2837C130.621 32.2837 125.474 28.6647 123.789 30.4393C122.103 32.2139 122.506 36.6462 122.506 36.6462L136.002 53.1847L146.705 60.3374L149.574 55.6127L140.577 47.171L130.621 32.2837V32.2837Z" fill="#3F3D56"/>
<path d="M123.077 24.4445L124.944 31.4234H114.695L118.07 22.8243L123.077 24.4445Z" fill="#FFB6B6"/>
<path opacity="0.1" d="M123.077 24.4445L124.944 31.4234H114.695L118.07 22.8243L123.077 24.4445Z" fill="black"/>
<path d="M100.725 75.972C100.593 78.0581 101.509 79.8207 102.772 79.9091C104.035 79.9974 105.165 78.378 105.297 76.2912C105.361 75.4584 105.234 74.6216 104.927 73.851L105.381 65.0049L101.429 64.8691L101.4 73.6042C100.999 74.3255 100.767 75.1374 100.725 75.972V75.972Z" fill="#FFB6B6"/>
<path d="M112.627 41.4679C112.627 41.4679 112.409 34.962 110.054 34.5626C107.699 34.1632 104.516 37.099 104.516 37.099L99.6519 58.2828L100.394 71.5936L105.717 71.2774L106.967 58.6665L112.627 41.4679V41.4679Z" fill="#3F3D56"/>
<path d="M135.457 119.216C135.457 119.216 139.33 126.779 139.053 126.488C138.777 126.197 134.074 127.942 134.074 127.942L131.307 120.379L135.457 119.216Z" fill="#FFB6B6"/>
<path d="M141.173 66.2762C141.173 66.2762 143.156 74.6091 142.956 74.2555C142.756 73.902 137.789 74.3759 137.789 74.3759L136.879 66.3295L141.173 66.2762V66.2762Z" fill="#FFB6B6"/>
<path d="M125.774 29.0963H116.104L105.579 36.6593L102.535 63.1298L104.195 68.3657L107.238 74.4742C107.238 74.4742 104.195 61.0936 111.665 66.3295C119.134 71.5654 119.688 72.438 119.688 72.438L129.647 67.2021L133.382 45.5313L130.615 33.605L125.774 29.0963Z" fill="#3F3D56"/>
<path d="M106.685 64.8751C115.438 66.1679 123.344 65.0407 129.785 59.73C129.785 59.73 134.488 76.3104 125.912 78.0557C117.336 79.801 107.792 76.8013 106.685 73.8925C105.579 70.9836 106.685 64.8751 106.685 64.8751Z" fill="#2F2E41"/>
<path d="M123.008 70.111L132.552 93.7635L136.978 121.107L131.169 122.561L120.777 97.3995L106.685 73.3107L123.008 70.111Z" fill="#2F2E41"/>
<path d="M124.252 63.3661C124.252 63.3661 126.466 45.3313 130.615 44.1677C132.638 43.6005 134.53 43.6554 135.937 43.8608C137.356 44.0677 138.487 45.2073 138.735 46.6903L142.506 69.2383H137.173L135.457 63.1297L130.892 71.5108L124.252 63.3661V63.3661Z" fill="#2F2E41"/>
<path d="M137.808 72.0926L143.081 71.5109L143.895 74.7106C143.895 74.7106 152.471 82.8553 148.044 83.4371C143.618 84.0189 139.468 80.8191 139.468 80.8191L133.379 77.1465C133.379 77.1465 135.733 70.5473 137.393 70.5473C139.053 70.5473 137.808 72.0926 137.808 72.0926V72.0926Z" fill="#2F2E41"/>
<path d="M135.042 126.633L140.315 126.052L141.128 129.251C141.128 129.251 149.704 137.396 145.278 137.978C140.852 138.56 136.702 135.36 136.702 135.36L130.613 131.687C130.613 131.687 131.03 124.797 132.69 124.797C134.35 124.797 135.042 126.633 135.042 126.633Z" fill="#2F2E41"/>
<path d="M120.642 25.961C124.051 25.961 126.814 23.0554 126.814 19.4712C126.814 15.887 124.051 12.9814 120.642 12.9814C117.233 12.9814 114.469 15.887 114.469 19.4712C114.469 23.0554 117.233 25.961 120.642 25.961Z" fill="#FFB6B6"/>
<path d="M123.008 12.2242C123.008 12.2242 124.037 15.2528 122.391 15.9018C120.745 16.5508 118.481 17.4161 118.687 18.4977C118.893 19.5793 118.07 22.8242 118.07 22.8242C118.07 22.8242 123.008 26.0691 119.716 29.314C116.424 32.559 113.955 31.2218 114.47 34.3781C114.984 37.5345 109.84 36.2365 109.84 36.2365C109.84 36.2365 107.989 33.2079 109.429 30.1794C110.869 27.1508 108.4 32.559 107.783 32.559C107.166 32.559 104.08 33.4243 105.314 29.7467C106.549 26.0691 108.4 25.8528 108.4 23.0406C108.4 20.2283 109.635 16.7671 110.046 16.3344C110.458 15.9018 112.309 10.2773 116.013 10.7099C119.716 11.1426 123.008 12.2242 123.008 12.2242V12.2242Z" fill="#2F2E41"/>
<path d="M69.0608 119.216C69.0608 119.216 65.1877 126.779 65.4643 126.488C65.741 126.197 70.444 127.942 70.444 127.942L73.2105 120.379L69.0608 119.216V119.216Z" fill="#A0616A"/>
<path d="M97.8324 64.8751C89.0796 66.1679 81.1738 65.0407 74.7321 59.73C74.7321 59.73 70.0291 76.3104 78.6052 78.0557C87.1814 79.801 96.7258 76.8013 97.8324 73.8925C98.939 70.9836 97.8324 64.8751 97.8324 64.8751Z" fill="#2F2E41"/>
<path d="M81.5101 70.111L71.9657 93.7635L67.5393 121.107L73.349 122.561L83.7407 97.3995L97.8325 73.3107L81.5101 70.111Z" fill="#2F2E41"/>
<path d="M69.4758 126.633L64.2031 126.052L63.3895 129.251C63.3895 129.251 54.8134 137.396 59.2398 137.978C63.6662 138.56 67.8159 135.36 67.8159 135.36L73.905 131.687C73.905 131.687 73.4873 124.797 71.8274 124.797C70.1675 124.797 69.4758 126.633 69.4758 126.633V126.633Z" fill="#2F2E41"/>
<path d="M77.8062 115.237C77.8062 115.237 76.3411 123.687 76.5189 123.321C76.6967 122.954 81.6824 123.089 81.6824 123.089L82.0949 114.997L77.8062 115.237Z" fill="#A0616A"/>
<path d="M75.2406 64.4888L73.1016 90.0836L76.9138 117.529L82.8668 117.028L85.3691 89.7228L91.7056 62.2379L75.2406 64.4888Z" fill="#2F2E41"/>
<path d="M80.3773 122.158L75.1911 123.315L75.356 126.622C75.356 126.622 69.5879 137.152 73.9691 136.269C78.3503 135.387 81.3588 130.997 81.3588 130.997L86.0732 125.528C86.0732 125.528 83.6543 119.11 82.0753 119.648C80.4964 120.187 80.3773 122.158 80.3773 122.158V122.158Z" fill="#2F2E41"/>
<path d="M80.2292 11.5104C80.2292 11.5104 77.5909 13.1373 78.4562 14.7462C79.3214 16.3551 80.5277 18.5465 79.7094 19.2367C78.891 19.9269 77.5399 22.9699 77.5399 22.9699C77.5399 22.9699 71.773 22.123 72.3144 26.8332C72.8558 31.5433 75.565 32.1855 73.2429 34.2576C70.9208 36.3297 75.6563 38.8079 75.6563 38.8079C75.6563 38.8079 78.9254 37.7368 79.6713 34.4428C80.4171 31.1488 79.0064 36.9614 79.4795 37.3782C79.9527 37.795 81.7898 40.5422 83.0897 36.8896C84.3896 33.2371 83.1024 31.821 84.82 29.6653C86.5377 27.5096 87.7055 24.0229 87.6544 23.4134C87.6032 22.8039 89.6191 17.2422 86.5162 15.0732C83.4132 12.9042 80.2292 11.5104 80.2292 11.5104V11.5104Z" fill="#2F2E41"/>
<path d="M81.4409 24.4445L79.5735 31.4234H89.8226L86.4477 22.8243L81.4409 24.4445Z" fill="#A0616A"/>
<path opacity="0.1" d="M81.4409 24.4445L79.5735 31.4234H89.8226L86.4477 22.8243L81.4409 24.4445Z" fill="black"/>
<path d="M103.792 75.972C103.925 78.0581 103.008 79.8207 101.746 79.9091C100.483 79.9974 99.3525 78.378 99.2204 76.2912C99.1567 75.4584 99.2837 74.6216 99.5907 73.851L99.1362 65.0049L103.089 64.8691L103.117 73.6042C103.519 74.3255 103.75 75.1374 103.792 75.972H103.792Z" fill="#A0616A"/>
<path d="M91.8904 41.4679C91.8904 41.4679 92.109 34.962 94.4637 34.5626C96.8183 34.1632 100.002 37.099 100.002 37.099L104.866 58.2828L104.124 71.5936L98.8005 71.2774L97.5511 58.6665L91.8904 41.4679V41.4679Z" fill="#4F517D"/>
<path d="M78.7437 29.0963H88.4133L98.9391 36.6593L101.982 63.1298L100.322 68.3657L97.2792 74.4742C97.2792 74.4742 100.322 61.0936 92.8528 66.3295C92.7781 66.3818 92.7041 66.4338 92.6308 66.4853C87.8225 69.862 81.4779 69.5153 77.0271 65.6344L73.4873 62.548L75.4239 52.367L73.9023 33.605L78.7437 29.0963V29.0963Z" fill="#4F517D"/>
<path d="M54.5476 62.2366C52.9967 63.545 51.0976 63.7641 50.3058 62.7262C49.5141 61.6882 50.1296 59.7866 51.6812 58.478C52.2942 57.9463 53.0194 57.5768 53.7961 57.4002L60.4339 51.9439L62.8027 55.2737L56.0075 60.2991C55.675 61.0582 55.1744 61.7226 54.5476 62.2366V62.2366Z" fill="#A0616A"/>
<path d="M74.6391 32.2222C74.6391 32.2222 79.8374 28.6859 81.497 30.4872C83.1565 32.2884 82.6899 36.7138 82.6899 36.7138L68.9559 53.0348L58.1517 60.0157L55.3506 55.2456L64.469 46.9486L74.6391 32.2222V32.2222Z" fill="#4F517D"/>
<path d="M83.8761 25.961C87.2849 25.961 90.0483 23.0554 90.0483 19.4712C90.0483 15.887 87.2849 12.9814 83.8761 12.9814C80.4673 12.9814 77.7039 15.887 77.7039 19.4712C77.7039 23.0554 80.4673 25.961 83.8761 25.961Z" fill="#A0616A"/>
<path d="M80.8033 15.1212C80.8033 15.1212 79.894 11.9341 81.4095 11.9341C82.925 11.9341 88.9871 12.2528 89.5933 12.8902C90.1995 13.5276 97.3729 19.9247 93.1294 25.0239C88.8859 30.1231 93.1294 32.5869 93.1294 32.5869C93.1294 32.5869 96.2616 40.2985 93.2306 40.9359C90.1995 41.5733 77.7665 37.9286 80.8033 32.0122C84.0988 25.5918 85.6322 15.4581 80.8033 15.1212L80.8033 15.1212Z" fill="#2F2E41"/>
<path d="M181.803 62.5002C181.705 62.1849 180.962 62.3237 180.891 62.0417C180.819 61.7607 181.532 61.5251 182.079 60.7333C182.177 60.5905 182.798 59.6906 182.56 59.3122C182.109 58.5948 178.967 60.3815 178.213 59.3789C178.047 59.1588 177.979 58.7811 177.486 58.078C177.29 57.7983 177.164 57.6633 177.014 57.6673C176.801 57.673 176.724 57.9536 176.389 58.4619C175.886 59.2242 175.705 59.1285 175.373 59.7531C175.128 60.2168 175.098 60.5131 174.921 60.5305C174.67 60.5553 174.566 59.978 174.26 59.9556C173.947 59.9327 173.634 60.5031 173.479 60.9488C173.187 61.7851 173.368 62.4244 173.408 63.0614C173.451 63.7537 173.349 64.7672 172.634 66.0679L165.886 77.3722C167.335 75.0678 171.449 68.7837 173.106 66.4786C173.584 65.8132 174.099 65.1451 174.89 65.0194C175.652 64.8983 176.579 65.2947 177.873 65.2716C178.024 65.2689 178.445 65.2558 178.547 65.0214C178.632 64.8276 178.422 64.6592 178.498 64.477C178.6 64.2327 179.061 64.3375 179.69 64.1753C180.133 64.0608 180.434 63.8718 180.693 63.7092C180.771 63.6602 181.933 62.9198 181.803 62.5001V62.5001V62.5002Z" fill="#F2F2F2"/>
<path d="M164.129 65.1394C163.953 65.099 163.804 65.5223 163.651 65.4778C163.5 65.4334 163.595 64.9976 163.383 64.4871C163.345 64.395 163.104 63.8149 162.859 63.8286C162.394 63.8546 162.321 65.9914 161.636 66.0913C161.485 66.1132 161.289 66.0394 160.819 66.091C160.632 66.1115 160.532 66.1375 160.491 66.2162C160.432 66.3279 160.541 66.4483 160.682 66.768C160.892 67.2474 160.795 67.3135 160.991 67.6646C161.137 67.9253 161.267 68.0258 161.224 68.1224C161.163 68.259 160.863 68.146 160.764 68.2977C160.663 68.4526 160.839 68.7788 161.003 68.9874C161.309 69.3791 161.659 69.4704 161.968 69.6336C162.304 69.8109 162.748 70.156 163.148 70.9005L166.478 77.6445C165.821 76.2317 164.074 72.2956 163.476 70.7753C163.304 70.3364 163.14 69.8782 163.31 69.4336C163.473 69.0054 163.926 68.6414 164.288 67.967C164.331 67.8882 164.446 67.6674 164.366 67.5469C164.3 67.4474 164.161 67.5072 164.098 67.4152C164.013 67.2918 164.195 67.0841 164.301 66.7131C164.375 66.4515 164.374 66.2416 164.373 66.0611C164.372 66.0067 164.362 65.1932 164.129 65.1394V65.1394V65.1394Z" fill="#F2F2F2"/>
<path d="M167.45 66.7849L167.555 65.7689L167.619 65.7051C167.916 65.41 168.102 65.0973 168.172 64.7755C168.183 64.7243 168.191 64.6726 168.2 64.6199C168.235 64.411 168.278 64.1513 168.469 63.8815C168.576 63.7313 168.859 63.3916 169.151 63.5102C169.229 63.5413 169.282 63.5949 169.319 63.6518C169.329 63.6419 169.338 63.6321 169.348 63.6214C169.474 63.4927 169.562 63.4455 169.647 63.4001C169.712 63.3652 169.78 63.3292 169.894 63.2334C169.944 63.1913 169.984 63.1535 170.018 63.1217C170.12 63.0256 170.251 62.9131 170.43 62.9577C170.62 63.0123 170.685 63.2029 170.729 63.3291C170.806 63.5543 170.83 63.7091 170.845 63.8117C170.851 63.8492 170.858 63.8915 170.863 63.9052C170.904 64.0155 171.426 64.044 171.623 64.0559C172.065 64.0811 172.447 64.1029 172.539 64.4209C172.605 64.6484 172.467 64.8965 172.118 65.178C172.01 65.2656 171.901 65.326 171.806 65.3711C171.865 65.429 171.911 65.5077 171.914 65.6149C171.92 65.8686 171.673 66.0633 171.178 66.1946C171.055 66.2275 170.89 66.2712 170.674 66.2601C170.572 66.2549 170.483 66.2385 170.407 66.2231C170.395 66.2687 170.375 66.3161 170.337 66.361C170.227 66.4935 170.049 66.5272 169.808 66.4525C169.542 66.3745 169.331 66.2684 169.146 66.1751C168.983 66.0938 168.843 66.0243 168.726 66.0054C168.508 65.9733 168.304 66.115 168.061 66.3035L167.45 66.785H167.45V66.7849Z" fill="#F2F2F2"/>
<path d="M169.192 60.9979L168.231 61.1491L168.156 61.1C167.809 60.8728 167.474 60.7632 167.161 60.7739C167.111 60.7756 167.061 60.78 167.01 60.7844C166.809 60.8021 166.559 60.8241 166.263 60.6982C166.097 60.6276 165.713 60.4261 165.748 60.0994C165.757 60.0115 165.793 59.9438 165.836 59.8919C165.824 59.885 165.813 59.8778 165.801 59.8702C165.65 59.7747 165.584 59.697 165.521 59.6222C165.472 59.5647 165.422 59.5053 165.305 59.4137C165.254 59.3735 165.209 59.3424 165.171 59.3161C165.057 59.2364 164.92 59.1318 164.916 58.9381C164.918 58.731 165.076 58.6163 165.182 58.5403C165.369 58.4047 165.505 58.3412 165.596 58.2992C165.629 58.2839 165.666 58.2665 165.678 58.258C165.768 58.1877 165.662 57.6493 165.623 57.4465C165.534 56.9908 165.458 56.5966 165.727 56.4225C165.919 56.2977 166.182 56.3745 166.53 56.6579C166.638 56.7462 166.721 56.8414 166.787 56.9262C166.825 56.8523 166.886 56.7851 166.984 56.7551C167.216 56.6842 167.457 56.8866 167.704 57.3562C167.765 57.4728 167.847 57.6298 167.892 57.8526C167.913 57.9575 167.92 58.0524 167.926 58.1337C167.97 58.1337 168.019 58.1428 168.07 58.1695C168.22 58.2479 168.296 58.4201 168.288 58.6844C168.284 58.9751 168.24 59.216 168.201 59.4286C168.168 59.6141 168.139 59.774 168.152 59.8982C168.177 60.1283 168.359 60.2993 168.595 60.4992L169.192 60.9979H169.192V60.9979Z" fill="#F2F2F2"/>
<path d="M169.322 57.9627L169.426 56.9467L169.491 56.8828C169.788 56.5877 169.973 56.275 170.043 55.9532C170.054 55.9021 170.063 55.8503 170.072 55.7976C170.106 55.5887 170.149 55.329 170.34 55.0593C170.447 54.909 170.73 54.5693 171.022 54.688C171.101 54.719 171.154 54.7727 171.191 54.8295C171.2 54.8197 171.209 54.8098 171.22 54.7991C171.345 54.6704 171.434 54.6233 171.519 54.5779C171.584 54.5429 171.651 54.507 171.765 54.4111C171.815 54.3691 171.855 54.3312 171.889 54.2994C171.991 54.2034 172.122 54.0908 172.301 54.1354C172.492 54.19 172.557 54.3807 172.6 54.5069C172.677 54.732 172.701 54.8868 172.717 54.9895C172.722 55.027 172.729 55.0692 172.734 55.0829C172.775 55.1932 173.298 55.2217 173.494 55.2336C173.936 55.2588 174.318 55.2806 174.41 55.5986C174.476 55.8261 174.339 56.0742 173.99 56.3557C173.881 56.4433 173.772 56.5037 173.678 56.5489C173.736 56.6067 173.782 56.6854 173.785 56.7926C173.792 57.0463 173.544 57.241 173.05 57.3723C172.927 57.4053 172.761 57.4489 172.545 57.4379C172.443 57.4326 172.354 57.4162 172.278 57.4009C172.267 57.4464 172.246 57.4938 172.208 57.5388C172.098 57.6712 171.921 57.7049 171.679 57.6303C171.413 57.5522 171.203 57.4461 171.017 57.3528C170.855 57.2716 170.715 57.2021 170.597 57.1831C170.379 57.151 170.176 57.2927 169.932 57.4813L169.322 57.9627H169.322V57.9627Z" fill="#F2F2F2"/>
<path d="M166.205 77.4301L166.035 77.2536L166.038 77.0026L166.035 77.2536L165.799 77.2273C165.8 77.204 165.798 77.1493 165.797 77.064C165.787 76.5966 165.759 75.1741 165.948 72.9884C166.079 71.4627 166.299 69.914 166.601 68.3845C166.903 66.8526 167.217 65.7128 167.47 64.7967C167.66 64.1058 167.852 63.4504 168.039 62.812C168.54 61.1065 169.012 59.4954 169.305 57.6578C169.37 57.2475 169.506 56.3936 169.228 55.3857C169.066 54.8012 168.79 54.251 168.406 53.7509L168.777 53.4351C169.201 53.9877 169.507 54.5971 169.687 55.2461C169.995 56.3636 169.847 57.2941 169.776 57.7411C169.478 59.6112 169.001 61.2378 168.496 62.9598C168.309 63.5958 168.118 64.2483 167.928 64.9365C167.678 65.8441 167.367 66.974 167.069 68.4862C166.77 69.9973 166.553 71.5271 166.423 73.0336C166.237 75.1918 166.265 76.5931 166.274 77.0535C166.279 77.2993 166.28 77.3508 166.205 77.4301V77.4301V77.4301Z" fill="#F2F2F2"/>
<path d="M167.386 54.3291C167.366 54.3246 167.347 54.3196 167.328 54.3136C166.936 54.198 166.621 53.862 166.393 53.315C166.286 53.0578 166.26 52.787 166.21 52.2472C166.202 52.1639 166.167 51.7427 166.21 51.1845C166.238 50.8197 166.275 50.6732 166.37 50.5582C166.475 50.4301 166.616 50.3567 166.765 50.3198C166.769 50.2715 166.784 50.2243 166.814 50.1795C166.937 49.9938 167.142 50.0701 167.254 50.1098C167.31 50.1311 167.38 50.158 167.459 50.172C167.583 50.1945 167.657 50.1716 167.768 50.1375C167.875 50.1049 168.009 50.0642 168.192 50.0677C168.556 50.0729 168.824 50.2445 168.913 50.3009C169.38 50.5958 169.541 51.0662 169.727 51.6108C169.764 51.72 169.887 52.1146 169.916 52.6228C169.936 52.9894 169.891 53.1395 169.838 53.2468C169.731 53.4674 169.568 53.5696 169.161 53.7848C168.736 54.0102 168.523 54.123 168.348 54.181C167.941 54.3153 167.686 54.3996 167.386 54.3291V54.3291V54.3291Z" fill="#F2F2F2"/>
<path d="M46.9447 59.8406L46.6326 49.4872C46.6275 49.3192 46.6904 49.1555 46.805 49.0383C46.9197 48.921 47.0771 48.8595 47.2368 48.8696L55.0506 49.3623C55.2084 49.3722 55.3566 49.4516 55.4569 49.58C55.5574 49.7084 55.6028 49.8765 55.5817 50.0412L54.2598 60.3316C54.2199 60.6429 53.955 60.8705 53.6569 60.8497L47.4772 60.42C47.4145 60.4156 47.3548 60.401 47.2995 60.3775C47.0954 60.2907 46.9521 60.0844 46.9447 59.8406V59.8406Z" fill="#4F517D"/>
<path d="M46.6423 48.5186C46.7516 48.5065 46.8981 48.4916 47.0739 48.4761C47.0269 48.3841 47.0076 48.2753 47.0277 48.1636L47.1673 47.3881C47.2035 47.1868 47.3577 47.0325 47.5508 47.0054C48.7013 46.8436 52.6585 46.4047 55.1503 47.5934C55.3062 47.6677 55.4065 47.831 55.4114 48.011L55.4342 48.8383C55.437 48.9406 55.4088 49.0354 55.3592 49.114C55.5664 49.1726 55.7729 49.2345 55.9777 49.3021C56.106 49.3444 56.1979 49.4635 56.2133 49.604L56.252 49.9564C56.2766 50.18 56.1022 50.3723 55.8886 50.3571L46.5472 49.6938C46.3346 49.6787 46.1865 49.4654 46.2377 49.2479L46.3453 48.7904C46.38 48.643 46.4987 48.5345 46.6423 48.5186V48.5186Z" fill="#3F3D56"/>
<path d="M23.4294 30.4612L23.1172 20.1078C23.1122 19.9398 23.175 19.7761 23.2896 19.6589C23.4043 19.5416 23.5617 19.4801 23.7215 19.4902L31.5352 19.983C31.6931 19.9928 31.8412 20.0722 31.9416 20.2006C32.042 20.329 32.0875 20.4971 32.0663 20.6618L30.7445 30.9522C30.7045 31.2635 30.4397 31.4911 30.1416 31.4703L23.9618 31.0406C23.8991 31.0363 23.8394 31.0216 23.7841 30.9981C23.58 30.9113 23.4367 30.705 23.4294 30.4612V30.4612Z" fill="#4F517D"/>
<path d="M23.1269 19.1393C23.2362 19.1272 23.3827 19.1123 23.5585 19.0968C23.5115 19.0048 23.4922 18.896 23.5123 18.7843L23.6519 18.0087C23.6881 17.8075 23.8423 17.6532 24.0354 17.626C25.1859 17.4643 29.1431 17.0254 31.6349 18.214C31.7908 18.2884 31.8911 18.4517 31.8961 18.6316L31.9188 19.459C31.9217 19.5613 31.8934 19.6561 31.8438 19.7347C32.051 19.7933 32.2575 19.8552 32.4623 19.9227C32.5906 19.965 32.6825 20.0842 32.6979 20.2247L32.7367 20.5771C32.7612 20.8007 32.5869 20.9929 32.3733 20.9778L23.0318 20.3145C22.8192 20.2994 22.6712 20.0861 22.7223 19.8686L22.8299 19.4111C22.8646 19.2637 22.9833 19.1552 23.1269 19.1393V19.1393Z" fill="#3F3D56"/>
<path d="M145.985 62.4585L145.673 52.1051C145.668 51.937 145.731 51.7734 145.846 51.6562C145.96 51.5389 146.118 51.4774 146.277 51.4875L154.091 51.9802C154.249 51.9901 154.397 52.0694 154.497 52.1979C154.598 52.3262 154.643 52.4943 154.622 52.659L153.3 62.9494C153.26 63.2608 152.996 63.4884 152.697 63.4676L146.518 63.0379C146.455 63.0335 146.395 63.0188 146.34 62.9953C146.136 62.9085 145.993 62.7022 145.985 62.4585V62.4585Z" fill="#4F517D"/>
<path d="M145.683 51.1366C145.792 51.1244 145.939 51.1096 146.114 51.094C146.067 51.002 146.048 50.8932 146.068 50.7815L146.208 50.006C146.244 49.8047 146.398 49.6504 146.591 49.6233C147.742 49.4615 151.699 49.0227 154.191 50.2113C154.347 50.2857 154.447 50.449 154.452 50.6289L154.475 51.4562C154.478 51.5585 154.449 51.6533 154.4 51.732C154.607 51.7905 154.813 51.8525 155.018 51.92C155.147 51.9623 155.238 52.0814 155.254 52.2219L155.293 52.5743C155.317 52.7979 155.143 52.9902 154.929 52.975L145.588 52.3117C145.375 52.2966 145.227 52.0833 145.278 51.8658L145.386 51.4083C145.421 51.2609 145.539 51.1524 145.683 51.1365V51.1366Z" fill="#3F3D56"/>
</g>
<defs>
<clipPath id="clip0_23_3565">
<rect width="182.6" height="138.913" fill="white" transform="translate(0.699951 0.298767)"/>
</clipPath>
</defs>
</svg>
