<svg width="201" height="210" viewBox="0 0 201 210" fill="none" xmlns="http://www.w3.org/2000/svg">
<g clip-path="url(#clip0_23_3524)">
<path d="M109.33 198.516C159.709 198.516 200.549 193.515 200.549 187.346C200.549 181.177 159.709 176.176 109.33 176.176C58.9513 176.176 18.1111 181.177 18.1111 187.346C18.1111 193.515 58.9513 198.516 109.33 198.516Z" fill="#3F3D56"/>
<path d="M154.57 174.986L156.143 180.298C156.143 180.298 163.72 188.877 160.979 191.202C158.239 193.528 152.091 181.27 152.091 181.27L150.958 175.273L154.57 174.986Z" fill="#FFB8B8"/>
<path d="M140.034 133.87L142.327 133.032C142.327 133.032 145.894 134.149 146.404 138.058C146.914 141.968 150.736 161.795 150.736 161.795C150.736 161.795 152.264 162.632 151.245 164.029C150.226 165.425 156.341 177.991 156.341 177.991L151.5 180.504C151.5 180.504 141.818 169.334 141.818 168.217C141.818 167.1 142.072 165.983 142.072 164.866C142.072 163.749 141.818 163.749 142.072 162.912C142.242 162.182 142.328 161.431 142.327 160.678L140.544 156.21L140.034 133.87Z" fill="#4F517D"/>
<path d="M143.152 107.361C139.056 99.7113 130.953 99.3548 130.953 99.3548C130.953 99.3548 123.057 98.2386 117.992 109.89C113.271 120.75 106.755 131.235 116.943 133.778L118.783 127.446L119.923 134.249C121.373 134.364 122.828 134.392 124.282 134.331C135.192 133.942 145.583 134.445 145.248 130.117C144.804 124.364 147.093 114.722 143.152 107.361Z" fill="#2F2E41"/>
<path d="M114.603 168.639C114.489 169.438 114.323 170.228 114.107 171.002C113.863 171.759 113.487 172.46 113.264 173.225C112.554 175.664 113.538 178.383 115.111 180.266C116.47 181.889 118.23 183.045 120.178 183.592C121.596 183.986 123.071 184.043 124.533 184.098C128.58 184.249 132.732 184.385 136.567 182.947C137.779 182.482 138.95 181.894 140.063 181.192C140.416 181.006 140.725 180.736 140.97 180.402C141.263 179.942 141.3 179.345 141.298 178.782C141.289 176.885 140.941 174.998 141.024 173.104C141.07 172.054 141.247 171.006 141.16 169.96C141.042 168.776 140.594 167.66 139.876 166.766C139.158 165.872 138.206 165.242 137.15 164.963C136.062 164.705 134.933 164.846 133.826 164.963C130.951 165.269 128.063 165.412 125.175 165.391C122.224 165.37 119.291 164.872 116.354 164.82C115.486 164.805 115.504 165.101 115.227 166.03C114.972 166.885 114.764 167.756 114.603 168.639V168.639Z" fill="#2F2E41"/>
<path d="M103.063 167.097C102.27 166.877 101.452 166.781 100.634 166.812C99.7746 166.871 98.9358 167.128 98.1728 167.567C97.4098 168.005 96.7397 168.615 96.2062 169.357C95.6779 170.109 95.2984 170.974 95.0918 171.896C94.8851 172.818 94.8559 173.777 95.006 174.712C95.2039 175.725 95.5278 176.703 95.9685 177.619C96.6127 179.064 97.3853 180.506 98.5778 181.432C99.2957 181.941 100.069 182.348 100.881 182.644L107.162 185.26C108.086 185.645 109.01 186.029 109.943 186.386C114.628 188.177 119.517 189.251 124.47 189.579C125.978 189.678 127.509 189.706 128.98 189.326C129.34 189.274 129.669 189.077 129.904 188.774C130.024 188.543 130.094 188.286 130.11 188.021L130.497 185.03C130.583 184.613 130.572 184.179 130.464 183.769C130.287 183.266 129.843 182.95 129.42 182.681C125.291 180.06 120.469 178.613 116.994 175.015C116.175 174.168 115.491 172.825 114.497 172.25C113.369 171.597 112.042 171.225 110.876 170.624C108.329 169.309 105.824 167.799 103.063 167.097Z" fill="#2F2E41"/>
<path opacity="0.1" d="M109.334 171.129C111.554 171.898 120.927 177.226 122.534 179.086C122.318 179.172 115.012 174.646 114.793 174.573C112.8 173.912 110.796 173.246 108.903 172.279C108.523 172.084 106.43 171.169 106.525 170.638C106.632 170.039 108.94 170.993 109.334 171.129Z" fill="black"/>
<path d="M137.031 191.13C137.157 191.14 137.282 191.099 137.383 191.015C137.427 190.952 137.459 190.88 137.478 190.804C137.497 190.727 137.502 190.647 137.493 190.568L137.482 186.493C136.422 185.935 135.237 185.756 134.073 185.584L128.643 184.781C128.767 184.8 127.794 187.367 127.943 187.709C128.206 188.313 130.217 188.849 130.785 189.134C132.758 190.125 134.808 191.215 137.031 191.13Z" fill="#FFB8B8"/>
<path d="M119.993 186.479C118.968 186.659 117.824 186.819 117.16 187.701C116.318 188.82 116.676 190.488 117.078 191.874C117.137 192.154 117.257 192.414 117.427 192.633C117.701 192.932 118.121 192.976 118.506 193.003C119.441 193.068 120.436 193.119 121.253 192.612C121.623 192.342 121.979 192.049 122.32 191.736C122.922 191.293 123.584 190.958 124.282 190.744C125.563 190.298 126.883 189.998 128.22 189.847C128.747 189.82 129.269 189.719 129.772 189.544C130.024 189.454 130.253 189.301 130.443 189.098C130.632 188.895 130.777 188.646 130.864 188.372C131.053 187.631 130.664 186.876 130.291 186.227C129.826 185.418 129.333 184.566 128.639 183.971C127.627 183.102 127.127 183.769 126.108 184.325C124.18 185.377 122.119 186.103 119.993 186.479Z" fill="#FFB8B8"/>
<path d="M117.314 187.5L110.804 185.373C110.024 185.072 109.208 184.897 108.381 184.854C107.556 184.854 106.692 185.154 106.157 185.848C105.652 186.503 105.507 187.398 105.381 188.248L105.112 190.064C104.933 190.98 104.882 191.92 104.962 192.853C105.085 193.779 105.512 194.703 106.255 195.151C107.156 195.694 108.26 195.429 109.265 195.202C111.296 194.743 113.361 194.498 115.434 194.47C116.214 194.46 117.031 194.471 117.72 194.068C118.538 193.588 119.028 192.574 119.112 191.554C119.24 190.003 118.772 187.976 117.314 187.5Z" fill="#2F2E41"/>
<path d="M139.59 185.646C140.433 185.483 141.178 184.952 141.987 184.639C143.125 184.199 144.359 184.199 145.565 184.204C146.007 184.206 146.479 184.217 146.847 184.488C147.379 184.879 147.515 185.661 147.605 186.359L148.15 190.573C148.252 191.365 148.354 192.179 148.195 192.96C148.035 193.741 147.553 194.493 146.852 194.695C146.001 194.939 145.166 194.338 144.363 193.943C142.354 192.956 140.018 193.209 137.924 192.471C137.535 192.334 137.119 192.125 136.96 191.709C136.888 191.475 136.863 191.227 136.885 190.981C136.921 189.627 136.663 187.777 137.031 186.483C137.363 185.319 138.648 185.646 139.59 185.646Z" fill="#2F2E41"/>
<path d="M153.366 165.401C154.667 165.041 156.015 164.939 157.349 165.1C158.413 165.23 159.51 165.558 160.287 166.372C161.233 167.364 161.537 168.897 161.563 170.338C161.606 173.204 160.745 175.998 159.127 178.25C158.733 178.818 158.263 179.317 157.734 179.732C157.164 180.126 156.557 180.45 155.922 180.698L141.856 186.83C138.156 188.444 134.442 190.062 130.582 191.126C130.477 191.182 130.362 191.214 130.245 191.221C130.127 191.227 130.01 191.208 129.9 191.164C129.789 191.119 129.688 191.051 129.602 190.963C129.517 190.875 129.448 190.769 129.4 190.652C128.167 188.704 127.133 186.614 126.317 184.418C126.28 184.348 126.258 184.27 126.251 184.189C126.244 184.109 126.253 184.027 126.278 183.951C126.329 183.866 126.401 183.799 126.485 183.756L136.434 177.437C137.164 177.015 137.844 176.497 138.459 175.894C138.89 175.433 139.242 174.891 139.499 174.294C139.705 173.818 139.724 172.694 139.988 172.342C140.246 171.998 141.128 171.97 141.535 171.835C142.11 171.64 142.673 171.405 143.22 171.131C145.446 170.03 147.427 168.431 149.561 167.142C150.756 166.387 152.035 165.801 153.366 165.401V165.401Z" fill="#2F2E41"/>
<path opacity="0.1" d="M147.726 170.12C146.017 171.539 143.803 172.844 142.109 174.3C141.531 174.797 131.893 180.787 131.757 181.583C133.337 181.877 143.405 174.092 144.845 173.315C146.286 172.538 147.563 171.442 148.828 170.355C149.15 170.078 150.517 169.245 149.591 168.935C149.07 168.76 148.111 169.836 147.726 170.12Z" fill="black"/>
<path d="M130.606 126.609C135.954 126.609 140.289 121.858 140.289 115.998C140.289 110.137 135.954 105.386 130.606 105.386C125.259 105.386 120.924 110.137 120.924 115.998C120.924 121.858 125.259 126.609 130.606 126.609Z" fill="#FFB8B8"/>
<path d="M134.683 124.934C134.683 124.934 133.154 129.122 135.957 130.798C138.76 132.473 127.294 145.877 127.294 145.877L122.198 129.681C122.198 129.681 126.529 128.005 125.765 123.537L134.683 124.934Z" fill="#FFB8B8"/>
<path d="M128.313 136.383L134.484 128.917L142.837 133.59L141.563 166.542L139.524 169.055C139.524 169.055 130.861 177.433 117.611 170.451C117.611 170.451 113.025 166.263 113.28 159.84C113.535 153.417 112.77 152.579 112.77 152.579L112.515 129.96L125.095 127.255L128.313 136.383Z" fill="#4F517D"/>
<path d="M100.018 171.914L98.4448 177.227C98.4448 177.227 90.868 185.805 93.6083 188.131C96.3487 190.456 102.497 178.198 102.497 178.198L103.63 172.201L100.018 171.914Z" fill="#FFB8B8"/>
<path d="M114.554 130.798L112.26 129.96C112.26 129.96 108.693 131.077 108.184 134.987C107.674 138.896 103.852 158.723 103.852 158.723C103.852 158.723 102.323 159.561 103.342 160.957C104.362 162.353 98.2463 174.919 98.2463 174.919L103.088 177.433C103.088 177.433 112.77 166.263 112.77 165.146C112.77 164.029 112.515 162.912 112.515 161.795C112.515 160.678 112.77 160.678 112.515 159.84C112.345 159.11 112.26 158.359 112.26 157.606L114.044 153.138L114.554 130.798Z" fill="#4F517D"/>
<path d="M141.341 106.624L133.336 101.989L122.281 103.885L119.993 115.052L125.687 114.81L127.277 110.707V114.742L129.905 114.631L131.43 108.099L132.383 115.052L141.722 114.841L141.341 106.624Z" fill="#2F2E41"/>
<path d="M84.5917 178.463V194.57H39.7007C39.7009 190.298 41.2494 186.202 44.0056 183.181C46.7617 180.16 50.4998 178.463 54.3977 178.463C58.607 177.025 63.4737 176.567 68.7532 176.718C73.7346 176.857 79.0829 177.541 84.5917 178.463Z" fill="#E086D3"/>
<path d="M78.1787 191.056H99.2884C99.6428 191.056 99.9826 191.211 100.233 191.485C100.484 191.76 100.624 192.132 100.624 192.521C100.624 192.909 100.484 193.281 100.233 193.556C99.9826 193.831 99.6428 193.985 99.2884 193.985H78.1787V191.056V191.056Z" fill="#3F3D56"/>
<path d="M81.835 164.679L87.4932 157.162C87.6236 156.864 87.8337 156.616 88.0956 156.452C88.3575 156.288 88.6588 156.215 88.9594 156.243C89.2599 156.272 89.5455 156.4 89.7781 156.61C90.0108 156.82 90.1794 157.104 90.2616 157.422L92.4929 166.056L81.835 164.679Z" fill="#3F3D56"/>
<path d="M74.9722 168.507L77.1099 159.048C77.1099 158.718 77.2017 158.395 77.3732 158.123C77.5447 157.851 77.7877 157.643 78.0698 157.526C78.352 157.409 78.66 157.389 78.9528 157.468C79.2455 157.548 79.5093 157.723 79.7089 157.971L85.1262 164.7L74.9722 168.507Z" fill="#E086D3"/>
<path d="M39.7004 194.571H43.9758V204.528C43.9758 205.143 43.8652 205.752 43.6504 206.321C43.4355 206.889 43.1206 207.406 42.7236 207.841C42.3266 208.276 41.8553 208.621 41.3366 208.856C40.8178 209.092 40.2619 209.213 39.7004 209.213V194.571V194.571Z" fill="#E086D3"/>
<path d="M77.3772 191.642H98.4869C98.8413 191.642 99.1811 191.796 99.4316 192.071C99.6822 192.346 99.823 192.718 99.823 193.106C99.823 193.495 99.6822 193.867 99.4316 194.142C99.1811 194.416 98.8413 194.571 98.4869 194.571H77.3772V191.642Z" fill="#E086D3"/>
<path opacity="0.2" d="M84.5916 178.463V194.481C82.4228 194.733 80.2301 194.444 78.178 193.634C76.126 192.825 74.268 191.516 72.7438 189.807C71.2195 188.097 70.0685 186.031 69.3773 183.764C68.6861 181.497 68.4727 179.088 68.7531 176.718C73.7344 176.857 79.0827 177.541 84.5916 178.463Z" fill="black"/>
<path d="M84.5918 194.571C92.5609 194.571 99.0212 187.491 99.0212 178.757C99.0212 170.023 92.5609 162.943 84.5918 162.943C76.6226 162.943 70.1624 170.023 70.1624 178.757C70.1624 187.491 76.6226 194.571 84.5918 194.571Z" fill="#E086D3"/>
<path d="M98.3911 179C98.607 179 98.7821 178.552 98.7821 178C98.7821 177.448 98.607 177 98.3911 177C98.1751 177 98 177.448 98 178C98 178.552 98.1751 179 98.3911 179Z" fill="#3F3D56"/>
<path d="M94.6122 176.707C94.8336 176.707 95.0131 176.248 95.0131 175.682C95.0131 175.116 94.8336 174.657 94.6122 174.657C94.3909 174.657 94.2114 175.116 94.2114 175.682C94.2114 176.248 94.3909 176.707 94.6122 176.707Z" fill="#3F3D56"/>
<path d="M97.5517 174.657C97.7731 174.657 97.9525 174.198 97.9525 173.632C97.9525 173.066 97.7731 172.607 97.5517 172.607C97.3303 172.607 97.1509 173.066 97.1509 173.632C97.1509 174.198 97.3303 174.657 97.5517 174.657Z" fill="#3F3D56"/>
<path d="M83.3813 162.767C83.3813 162.767 82.5793 161.238 82.5793 160.305Z" fill="#3F3D56"/>
<path d="M83.7341 161.778C83.7341 161.778 84.1711 160.081 84.7797 159.429Z" fill="#3F3D56"/>
</g>
<defs>
<clipPath id="clip0_23_3524">
<rect width="200.35" height="209.213" fill="white" transform="translate(0.199951 -6.10352e-05)"/>
</clipPath>
</defs>
</svg>
