<svg width="85" height="75" viewBox="0 0 85 75" fill="none" xmlns="http://www.w3.org/2000/svg">
<path d="M63.1855 31.283V53.9542H0.000244141C0.000538025 47.9416 2.18009 42.1752 6.05947 37.9236C9.93886 33.672 15.2004 31.2833 20.6866 31.283C26.6114 29.2588 33.4614 28.6142 40.8924 28.8265C47.9039 29.023 55.4317 29.986 63.1855 31.283Z" fill="#E086D3"/>
<path d="M59.3054 11.8811L67.2695 1.30083C67.4531 0.88121 67.7488 0.532764 68.1175 0.301886C68.4861 0.0710081 68.9102 -0.0313619 69.3332 0.00836896C69.7562 0.0480998 70.1582 0.22807 70.4856 0.524321C70.8131 0.820572 71.0504 1.21905 71.1661 1.66677L74.3068 13.8193L59.3054 11.8811Z" fill="#3F3D56"/>
<path d="M49.646 17.2696L52.6549 3.95607C52.6549 3.49074 52.7842 3.03643 53.0255 2.6536C53.2669 2.27078 53.6089 1.97757 54.006 1.81299C54.4032 1.64842 54.8367 1.62028 55.2488 1.73232C55.6609 1.84435 56.0321 2.09127 56.313 2.44019L63.9381 11.9111L49.646 17.2696Z" fill="#E086D3"/>
<path d="M0 53.955H6.01771V67.9696C6.01771 68.8357 5.86206 69.6933 5.55964 70.4935C5.25722 71.2936 4.81396 72.0207 4.25516 72.6331C3.69637 73.2455 3.03298 73.7313 2.30288 74.0627C1.57277 74.3941 0.790257 74.5647 0 74.5647V53.955V53.955Z" fill="#E086D3"/>
<path d="M53.031 49.8328H82.7435C83.2422 49.8328 83.7205 50.05 84.0732 50.4365C84.4259 50.823 84.624 51.3472 84.624 51.8938C84.624 52.4404 84.4259 52.9646 84.0732 53.3511C83.7205 53.7376 83.2422 53.9548 82.7435 53.9548H53.031V49.8328Z" fill="#E086D3"/>
<path d="M63.1858 53.9548C74.4025 53.9548 83.4956 43.9894 83.4956 31.6964C83.4956 19.4034 74.4025 9.43793 63.1858 9.43793C51.969 9.43793 42.876 19.4034 42.876 31.6964C42.876 43.9894 51.969 53.9548 63.1858 53.9548Z" fill="#E086D3"/>
<path d="M82.5866 32C82.9105 32 83.1732 31.3284 83.1732 30.5C83.1732 29.6716 82.9105 29 82.5866 29C82.2626 29 82 29.6716 82 30.5C82 31.3284 82.2626 32 82.5866 32Z" fill="#3F3D56"/>
<path d="M77.2897 28.8112C77.6013 28.8112 77.8539 28.1653 77.8539 27.3685C77.8539 26.5718 77.6013 25.9258 77.2897 25.9258C76.9782 25.9258 76.7256 26.5718 76.7256 27.3685C76.7256 28.1653 76.9782 28.8112 77.2897 28.8112Z" fill="#3F3D56"/>
<path d="M81.4272 25.9257C81.7388 25.9257 81.9914 25.2798 81.9914 24.483C81.9914 23.6863 81.7388 23.0403 81.4272 23.0403C81.1156 23.0403 80.863 23.6863 80.863 24.483C80.863 25.2798 81.1156 25.9257 81.4272 25.9257Z" fill="#3F3D56"/>
<path d="M61.4821 9.19013C61.4821 9.19013 60.3533 7.03809 60.3533 5.72528Z" fill="#3F3D56"/>
<path d="M61.9785 7.79834C61.9785 7.79834 62.5936 5.40934 63.4502 4.49164Z" fill="#3F3D56"/>
</svg>
